<?xml version="1.0" encoding="UTF-8"?>
<svg version="1.1" xmlns="http://www.w3.org/2000/svg" width="787" height="317">
<path d="M0 0 C1.09810864 0.01233191 1.09810864 0.01233191 2.21840128 0.02491295 C3.39167516 0.01439473 3.39167516 0.01439473 4.58865154 0.00366402 C7.23174255 -0.01506864 9.87396222 -0.00509176 12.51709113 0.00459969 C14.42234329 -0.00286772 16.32758932 -0.01206851 18.23282555 -0.0228616 C23.48573981 -0.04742323 28.73840032 -0.04678883 33.99135897 -0.0420841 C39.65007738 -0.04127029 45.30871305 -0.06332212 50.96739325 -0.08231437 C62.06160429 -0.11559417 73.15573034 -0.12653624 84.2499871 -0.12876388 C93.26729174 -0.13066244 102.28456825 -0.13887098 111.301864 -0.15156639 C132.69382223 -0.18107193 154.08575265 -0.20566398 175.47773203 -0.20357215 C176.1622461 -0.20350984 176.84676017 -0.20344752 177.55201708 -0.20338332 C181.0215273 -0.20305088 184.49103751 -0.20265472 187.96054772 -0.20224449 C188.99415583 -0.20212482 188.99415583 -0.20212482 190.04864491 -0.20200273 C191.44211901 -0.20184098 192.8355931 -0.20167379 194.22906719 -0.20150116 C215.90008796 -0.19905117 237.57085822 -0.22905327 259.24180731 -0.28379142 C283.58298241 -0.34524872 307.92395111 -0.37960463 332.26521614 -0.37593853 C345.15527019 -0.3746098 358.04504187 -0.38563415 370.93503127 -0.42865074 C381.91230871 -0.4650484 392.88917587 -0.47379117 403.86648748 -0.44661304 C409.46789649 -0.43353878 415.06851814 -0.43337043 420.66985258 -0.46802604 C425.79949439 -0.49943668 430.92772301 -0.49381625 436.0573298 -0.45888951 C437.91138242 -0.45273795 439.76553983 -0.46005895 441.61946891 -0.48232982 C451.39764551 -0.59199769 458.3778068 -0.66439929 465.79411724 6.53697193 C466.71097163 7.52819895 466.71097163 7.52819895 467.64634833 8.53945076 C468.74501776 9.52898911 469.85095196 10.5105713 470.96666083 11.48085701 C471.8922077 12.34581795 472.81775458 13.21077889 473.77134833 14.10195076 C477.71830251 17.76607778 481.68456023 21.3949462 485.77525458 24.89882576 C487.12627871 26.08343982 488.44288796 27.30770207 489.73619208 28.55507576 C490.42841864 29.20991951 491.1206452 29.86476326 491.83384833 30.53945076 C492.44615301 31.13757576 493.0584577 31.73570076 493.68931708 32.35195076 C495.60941626 33.75345438 495.60941626 33.75345438 498.06431708 33.50820076 C501.38009116 32.26415845 503.22752982 30.4997409 505.77134833 28.03945076 C506.74047458 27.120429 507.7118892 26.2038152 508.68541083 25.28945076 C509.17686591 24.82667733 509.66832098 24.36390389 510.17466864 23.88710701 C512.41623589 21.83444424 514.7762308 19.94097772 517.14634833 18.03945076 C522.02646437 14.10455089 526.64119908 9.96690883 531.23619208 5.70351326 C535.40004111 1.96482224 537.47922802 0.15994319 543.24107489 0.19887459 C544.36193488 0.19910119 545.48279486 0.19932778 546.6376203 0.19956124 C547.8419068 0.21504509 549.0461933 0.23052895 550.28697333 0.24648201 C551.52429205 0.25072686 552.76161078 0.2549717 554.03642401 0.25934517 C557.31797373 0.27328823 560.59907889 0.30021991 563.88047919 0.33345711 C567.2320814 0.36420483 570.58370272 0.37760474 573.93541083 0.39296639 C580.5058971 0.4260508 587.07608635 0.47626231 593.64634833 0.53945076 C593.64634833 3.53945076 593.64634833 3.53945076 591.08384833 6.21132576 C589.94572196 7.24590969 588.79935637 8.27147828 587.64634833 9.28945076 C586.75049017 10.0973304 586.75049017 10.0973304 585.83653387 10.92153084 C584.11448505 12.47013926 582.38289873 14.00713848 580.64634833 15.53945076 C579.88966864 16.2084742 579.13298895 16.87749764 578.35337958 17.56679451 C577.09910695 18.66589939 575.84133077 19.76102001 574.57994208 20.85195076 C572.36782781 22.78252322 570.19545923 24.75368966 568.02134833 26.72695076 C564.0190403 30.34312494 559.94351644 33.85952275 555.83384833 37.35195076 C549.92383634 42.38013609 544.20594472 47.58709884 538.52525458 52.87148201 C533.93081571 57.12928628 529.20143242 61.21437546 524.43541083 65.27773201 C517.89333783 70.85961641 511.43084732 76.49652093 505.09166083 82.30898201 C502.96595935 84.24792058 500.81856784 86.15304961 498.64634833 88.03945076 C495.43735588 90.82759174 492.28718389 93.67473261 489.14634833 96.53945076 C485.35761364 99.99465173 481.53882873 103.40577632 477.66587958 106.76601326 C474.57892644 109.47679996 471.55531119 112.25717998 468.52916083 115.03554451 C467.5778327 115.86183358 466.62650458 116.68812264 465.64634833 117.53945076 C465.03731948 118.18692237 464.42829064 118.83439398 463.80080637 119.50148594 C455.94960384 127.03699383 448.1095732 126.63553341 437.91172919 126.46352303 C436.12864604 126.46290264 434.34555874 126.46580059 432.56248602 126.47193062 C427.7464133 126.47846869 422.93192183 126.43571584 418.11617479 126.38353384 C413.07320391 126.33708651 408.03021373 126.33546871 402.98706183 126.32874215 C394.52954319 126.31130581 386.07260729 126.26500269 377.61534247 126.19789803 C365.67199385 126.10316806 353.72886668 126.05992172 341.78520891 126.02726579 C325.80182416 125.98080848 309.81818843 125.92048542 293.83518347 125.79890549 C292.1021074 125.78634721 290.36901833 125.77546093 288.63592085 125.76632226 C286.2808061 125.75347264 283.92582678 125.734421 281.57077155 125.71353829 C280.87624394 125.71099417 280.18171634 125.70845006 279.46614245 125.70582885 C274.76070261 125.65380505 274.76070261 125.65380505 273.64634833 124.53945076 C273.54604976 122.11088041 273.51016408 119.71073464 273.5169538 117.28163826 C273.51432532 116.14266091 273.51432532 116.14266091 273.51164374 114.98067391 C273.50722503 112.45857661 273.51016327 109.93654884 273.51353583 107.41445076 C273.51286279 105.6694962 273.51189277 103.92454173 273.51063666 102.17958748 C273.50915966 98.51763181 273.5113143 94.85570049 273.51597723 91.19374764 C273.52167452 86.48900584 273.51839553 81.78432108 273.51240477 77.07958138 C273.50879921 73.47491185 273.50993772 69.87025595 273.51253256 66.26558602 C273.51320185 64.53035646 273.51237336 62.79512568 273.51005301 61.05989754 C273.50752656 58.63898589 273.51136694 56.2181679 273.5169538 53.79726326 C273.51492957 53.07307198 273.51290533 52.3488807 273.51081976 51.60274422 C273.53208566 46.65371343 273.53208566 46.65371343 274.64634833 45.53945076 C277.61689862 45.40150805 280.5648476 45.32891117 283.53721747 45.29897225 C284.4706095 45.28597588 285.40400153 45.27297951 286.36567816 45.25958931 C296.15168196 45.13262795 305.93856305 45.0760756 315.72520575 45.02455819 C320.36892001 44.99783189 325.0116053 44.94913319 329.65489325 44.8810035 C335.25827062 44.7989894 340.86066923 44.75636262 346.46461424 44.7414943 C348.5988908 44.72925361 350.73313543 44.70323726 352.86706862 44.66304505 C369.60908231 44.36358591 369.60908231 44.36358591 374.6799024 47.29035103 C376.67482968 49.27439779 378.13235603 51.18220134 379.64634833 53.53945076 C381.43097278 55.05213244 383.23991105 56.53716412 385.08384833 57.97695076 C389.57248587 61.57656453 393.63027813 65.40168225 397.63072333 69.53163826 C399.41445218 71.30845344 401.22703289 72.86789386 403.20884833 74.41445076 C404.41541083 75.46632576 404.41541083 75.46632576 405.64634833 76.53945076 C405.64634833 77.52945076 405.64634833 78.51945076 405.64634833 79.53945076 C373.96634833 79.53945076 342.28634833 79.53945076 309.64634833 79.53945076 C309.97634833 82.83945076 310.30634833 86.13945076 310.64634833 89.53945076 C326.62377061 89.77148725 342.60049215 89.94967049 358.57919154 90.05757248 C365.9993794 90.10901778 373.41849769 90.17908142 380.83799872 90.2938453 C387.30910294 90.3938913 393.77943228 90.4581193 400.25128844 90.48033571 C403.67484336 90.49331279 407.09618271 90.52353839 410.51902327 90.59675133 C427.26614222 91.64896476 427.26614222 91.64896476 441.6587995 84.69716561 C443.03620938 83.01631773 444.37234103 81.29996573 445.64634833 79.53945076 C446.9475751 78.33707904 448.27571152 77.16205649 449.64634833 76.03945076 C452.99361419 73.11756661 456.33157824 70.18565859 459.64634833 67.22695076 C461.06947333 65.96431405 461.06947333 65.96431405 462.52134833 64.67616951 C464.88140157 62.80535154 464.88140157 62.80535154 464.64634833 60.53945076 C462.61906938 58.81611169 460.58106173 57.2012357 458.45884833 55.60195076 C452.81059161 51.26450767 447.31399333 46.79612228 441.91124091 42.15688241 C440.4957691 40.9438478 439.07140633 39.74120908 437.64634833 38.53945076 C437.07245436 38.00517561 436.4985604 37.47090045 435.90727571 36.92043513 C432.76673082 35.00217653 430.3982247 35.15015935 426.72932276 35.13120091 C426.03010542 35.12354503 425.33088808 35.11588914 424.61048234 35.10800126 C422.25579916 35.08593783 419.90159481 35.08526526 417.54681525 35.08447945 C415.84622601 35.07315069 414.14564486 35.06054851 412.44507363 35.04677886 C407.76263696 35.01281789 403.08030058 34.99781245 398.39776251 34.98602724 C393.35120248 34.97021542 388.30474693 34.93741707 383.25825629 34.90723336 C371.06702046 34.83841676 358.87575779 34.79910202 346.68438399 34.76438543 C342.09481644 34.75098471 337.50525487 34.73594026 332.91569239 34.72091515 C312.69002301 34.6550392 292.46434707 34.59890663 272.23859248 34.5676862 C267.28784101 34.55991678 262.33708968 34.55207313 257.38633856 34.54408944 C256.15583746 34.5421136 254.92533636 34.54013775 253.65754735 34.53810204 C233.71753631 34.50448368 213.77823388 34.41268578 193.83854795 34.29690509 C173.37271565 34.17904057 152.90724558 34.11385256 132.44107392 34.10020083 C120.94743434 34.0912029 109.45488062 34.05889051 97.96157393 33.96753418 C88.17459778 33.8898833 78.38894152 33.85974825 68.60168416 33.89189189 C63.60721093 33.90682802 58.61549052 33.89905101 53.62140974 33.83019936 C49.04714661 33.76766684 44.4776256 33.76996178 39.90329068 33.8235044 C38.25043908 33.83149561 36.59726633 33.81586948 34.94492454 33.77404987 C26.46763863 33.37074897 26.46763863 33.37074897 19.11272986 36.9249744 C15.93391744 40.77862537 13.80872807 45.06115095 11.64634833 49.53945076 C10.74158985 50.99360342 9.81872194 52.43729109 8.85337958 53.85195076 C3.84992624 61.5567991 -1.11335382 69.28597594 -6.04115167 77.03945076 C-11.26201298 85.25310236 -16.4885363 93.46306517 -21.72865167 101.66445076 C-22.37020197 102.67056405 -23.01175226 103.67667733 -23.67274347 104.71327889 C-24.92898617 106.6781339 -26.20836411 108.62839663 -27.51087824 110.56288826 C-29.44880179 113.52232446 -29.44880179 113.52232446 -30.78236261 116.92226326 C-32.61576366 120.76821031 -33.96406324 122.92034932 -37.35365167 125.53945076 C-44.94487752 127.53526696 -53.1001045 126.66066847 -60.85365167 126.28945076 C-63.03319287 126.22921382 -65.21289321 126.17446859 -67.39271417 126.12538826 C-72.71651451 125.99358032 -78.03434472 125.79323523 -83.35365167 125.53945076 C-82.78397035 121.48732612 -81.52220121 118.85904826 -79.26380792 115.46523201 C-78.63103937 114.50181893 -77.99827081 113.53840584 -77.34632745 112.54579842 C-76.68874445 111.55370369 -76.03116144 110.56160897 -75.35365167 109.53945076 C-74.11980852 107.61843684 -72.88934554 105.69524773 -71.66224542 103.76991951 C-70.3719312 101.75556434 -69.08156485 99.74124255 -67.79115167 97.72695076 C-62.59300978 89.60870108 -57.40271883 81.4855667 -52.22865167 73.35195076 C-51.65872491 72.45621346 -51.08879816 71.56047616 -50.50160089 70.6375953 C-47.6298134 66.12269265 -44.76125174 61.6057723 -41.89662042 57.08632576 C-35.19613564 46.52393889 -28.41837703 36.0172277 -21.56385675 25.5540992 C-17.55485024 19.42136545 -13.64256962 13.24555519 -9.86927667 6.96523201 C-9.1190423 5.7644703 -9.1190423 5.7644703 -8.35365167 4.53945076 C-7.9835655 3.84003137 -7.61347933 3.14061197 -7.23217842 2.41999805 C-4.89633352 0.08164072 -3.22923755 0.05337632 0 0 Z " fill="#FAB03B" transform="translate(125.3536516726017,100.46054923534393)"/>
<path d="M0 0 C0.85758911 -0.00315216 1.71517822 -0.00630432 2.59875488 -0.009552 C3.53102905 -0.00752777 4.46330322 -0.00550354 5.42382812 -0.00341797 C6.84979309 -0.00485306 6.84979309 -0.00485306 8.30456543 -0.00631714 C10.31876695 -0.00699904 12.33297065 -0.00514409 14.34716797 -0.00097656 C17.44178167 0.00437155 20.53625022 -0.00092124 23.63085938 -0.00732422 C25.58268261 -0.00666344 27.53450576 -0.00538228 29.48632812 -0.00341797 C30.41860229 -0.0054422 31.35087646 -0.00746643 32.31140137 -0.009552 C33.16899048 -0.00639984 34.02657959 -0.00324768 34.91015625 0 C35.66880981 0.00079559 36.42746338 0.00159119 37.20910645 0.00241089 C38.95507812 0.12939453 38.95507812 0.12939453 39.95507812 1.12939453 C40.26732483 5.28809001 40.23373922 9.46044116 40.26757812 13.62939453 C40.29658203 14.78955078 40.32558594 15.94970703 40.35546875 17.14501953 C40.42140455 26.11228836 38.78562651 32.04082464 33.70507812 39.37939453 C26.40312947 46.68134319 18.33669436 49.34246164 8.12127686 49.37823486 C7.28977112 49.37104431 6.45826538 49.36385376 5.6015625 49.35644531 C4.7030658 49.35673737 3.80456909 49.35702942 2.87884521 49.35733032 C-0.06459513 49.35594692 -3.00777623 49.34043263 -5.95117188 49.32470703 C-8.00239931 49.32097338 -10.05362854 49.31812807 -12.1048584 49.31613159 C-17.48393747 49.30852288 -22.86290725 49.28889822 -28.24194336 49.26672363 C-33.7387545 49.24620556 -39.23558342 49.23711716 -44.73242188 49.22705078 C-55.50331077 49.20564961 -66.2740901 49.1704901 -77.04492188 49.12939453 C-76.54992187 63.48439453 -76.54992187 63.48439453 -76.04492188 78.12939453 C-77.03492188 78.45939453 -78.02492188 78.78939453 -79.04492188 79.12939453 C-82.13996857 76.18040622 -84.69555205 73.06733834 -87.23242188 69.62939453 C-88.02924071 68.55513412 -88.82611731 67.48091655 -89.62304688 66.40673828 C-90.02587891 65.86130371 -90.42871094 65.31586914 -90.84375 64.75390625 C-100.45895358 51.7499297 -110.36925406 38.97505669 -120.3112793 26.22070312 C-120.88209229 25.48803223 -121.45290527 24.75536133 -122.04101562 24.00048828 C-122.54818115 23.35007568 -123.05534668 22.69966309 -123.57788086 22.02954102 C-124.06200439 21.40249268 -124.54612793 20.77544434 -125.04492188 20.12939453 C-125.60187744 19.43080322 -126.15883301 18.73221191 -126.73266602 18.01245117 C-128.04492188 16.12939453 -128.04492188 16.12939453 -128.04492188 14.12939453 C-121.52133055 13.1500858 -115.17051786 12.9932291 -108.58007812 13.01586914 C-107.4572493 13.01572311 -106.33442047 13.01557709 -105.17756653 13.01542664 C-101.48749827 13.0161201 -97.79748126 13.02388593 -94.10742188 13.03173828 C-91.54052762 13.03360447 -88.97363302 13.03502743 -86.40673828 13.036026 C-80.35440628 13.03944654 -74.30209524 13.04731811 -68.24977112 13.05737549 C-61.35491884 13.06858236 -54.46006566 13.07405857 -47.56520653 13.07907093 C-33.39176855 13.08950206 -19.21834586 13.10707289 -5.04492188 13.12939453 C-5.05652344 12.27474609 -5.068125 11.42009766 -5.08007812 10.53955078 C-5.08910156 9.43482422 -5.098125 8.33009766 -5.10742188 7.19189453 C-5.11902344 6.08974609 -5.130625 4.98759766 -5.14257812 3.85205078 C-4.99060394 -0.38498944 -3.83108246 0.00401762 0 0 Z " fill="#FAB03B" transform="translate(344.044921875,145.87060546875)"/>
<path d="M0 0 C0.90862289 -0.04188446 1.81724579 -0.08376892 2.75340271 -0.12692261 C6.9474807 -0.27759274 11.14150116 -0.38467241 15.33740234 -0.46972656 C17.54262962 -0.52629986 19.74736781 -0.60798976 21.95068359 -0.71582031 C39.72923325 -1.56974749 39.72923325 -1.56974749 44.68054199 1.54733276 C48.29758537 4.92706096 50.4448199 8.95091321 52.73071289 13.31982422 C54.15547351 15.28214416 55.6093924 17.2240089 57.10571289 19.13232422 C58.23503324 20.64271575 59.36433039 22.15312481 60.49291992 23.6640625 C62.33436823 26.12731741 64.18020532 28.58727348 66.02587891 31.04736328 C67.03829444 32.39681626 68.05050114 33.74642593 69.0625 35.09619141 C71.70199743 38.61664052 74.34355457 42.13551634 76.98852539 45.65185547 C77.5211499 46.36051758 78.05377441 47.06917969 78.60253906 47.79931641 C79.61244682 49.14292048 80.6229799 50.48605488 81.63427734 51.82861328 C82.55486276 53.05392767 83.47238179 54.28155324 84.38647461 55.51171875 C85.31292473 56.75786651 86.24734775 57.998113 87.18823242 59.23339844 C90.73071289 63.98283572 90.73071289 63.98283572 90.73071289 67.31982422 C83.91797291 67.57455899 77.10647022 67.74897225 70.29003906 67.86914062 C67.97446816 67.91925771 65.65921103 67.98737438 63.34472656 68.07421875 C44.16537699 68.7755501 44.16537699 68.7755501 38.35595703 65.30200195 C36.04815876 62.76122917 34.39774189 60.31118 32.73071289 57.31982422 C31.72905754 56.03713556 30.70640447 54.77035534 29.65649414 53.52685547 C28.78157544 52.39830001 27.9103432 51.26687487 27.04321289 50.13232422 C25.75566549 48.45832128 24.46583555 46.7886162 23.14744568 45.13876343 C22.22208464 43.95069502 21.33214703 42.7339303 20.48512268 41.48880005 C18.50099475 38.78318956 16.92631357 36.6944264 13.65211487 35.66856384 C11.2093298 35.41593879 8.85018924 35.37600755 6.39477539 35.41748047 C5.51542328 35.40518906 4.63607117 35.39289764 3.73007202 35.38023376 C0.93776159 35.34859008 -1.85189603 35.36475444 -4.64428711 35.38232422 C-6.54405115 35.36921012 -8.44379634 35.35296771 -10.34350586 35.33349609 C-14.98599643 35.29271624 -19.62670381 35.29478913 -24.26928711 35.31982422 C-24.59928711 34.65982422 -24.92928711 33.99982422 -25.26928711 33.31982422 C-24.09659467 31.0454181 -22.87139864 28.92302247 -21.51928711 26.75732422 C-20.91987305 25.77868408 -20.91987305 25.77868408 -20.30834961 24.78027344 C-5.18090968 0.23878635 -5.18090968 0.23878635 0 0 Z " fill="#F9B03B" transform="translate(151.269287109375,158.68017578125)"/>
<path d="M0 0 C4.43077273 0.24672516 7.06674584 3.58588369 10.0625 6.5 C14.09609097 10.32964535 18.15026348 14.02532061 22.5 17.5 C26.666672 20.84302754 30.60411992 24.35122317 34.5 28 C39.34046043 32.53163176 44.31911448 36.80687165 49.48828125 40.96484375 C53.08055101 43.875532 56.58106707 46.88748087 60 50 C60.5671875 50.49757812 61.134375 50.99515625 61.71875 51.5078125 C63 53 63 53 63 56 C55.08928944 56.23281391 47.1800341 56.40992553 39.26673317 56.51812172 C35.59113299 56.57008189 31.91789363 56.64040885 28.24365234 56.75439453 C24.69022246 56.86392867 21.13904581 56.92301499 17.58405685 56.94877243 C15.58389542 56.97595325 13.58462836 57.05388651 11.58584595 57.13296509 C6.1793425 57.13625689 2.47236323 57.06985575 -1.98907471 53.82806396 C-4.49610361 51.3240069 -6.7457983 48.73041273 -9 46 C-10.26562169 44.82546241 -11.55235948 43.67243643 -12.875 42.5625 C-16.487498 39.47032064 -19.99976754 36.28035646 -23.5 33.0625 C-24.31186768 32.31625366 -24.31186768 32.31625366 -25.14013672 31.55493164 C-26.42741933 30.37067309 -27.71380668 29.18544151 -29 28 C-27.69985934 25.10820032 -26.35656066 23.13291606 -24.03125 20.984375 C-23.46019531 20.45585937 -22.88914062 19.92734375 -22.30078125 19.3828125 C-21.70652344 18.84398437 -21.11226562 18.30515625 -20.5 17.75 C-19.90574219 17.19570312 -19.31148437 16.64140625 -18.69921875 16.0703125 C-14.25796644 12 -14.25796644 12 -12 12 C-12 11.34 -12 10.68 -12 10 C-10.23947136 8.41929472 -8.41580202 6.90833714 -6.5625 5.4375 C-5.55316406 4.63183594 -4.54382813 3.82617188 -3.50390625 2.99609375 C-2.67761719 2.33738281 -1.85132813 1.67867187 -1 1 C-0.67 0.67 -0.34 0.34 0 0 Z " fill="#FAB03B" transform="translate(660,170)"/>
<path d="M0 0 C1.09810864 0.01233191 1.09810864 0.01233191 2.21840128 0.02491295 C3.39167516 0.01439473 3.39167516 0.01439473 4.58865154 0.00366402 C7.23174255 -0.01506864 9.87396222 -0.00509176 12.51709113 0.00459969 C14.42234329 -0.00286772 16.32758932 -0.01206851 18.23282555 -0.0228616 C23.48573981 -0.04742323 28.73840032 -0.04678883 33.99135897 -0.0420841 C39.65007738 -0.04127029 45.30871305 -0.06332212 50.96739325 -0.08231437 C62.06160429 -0.11559417 73.15573034 -0.12653624 84.2499871 -0.12876388 C93.26729174 -0.13066244 102.28456825 -0.13887098 111.301864 -0.15156639 C132.69382223 -0.18107193 154.08575265 -0.20566398 175.47773203 -0.20357215 C176.1622461 -0.20350984 176.84676017 -0.20344752 177.55201708 -0.20338332 C181.0215273 -0.20305088 184.49103751 -0.20265472 187.96054772 -0.20224449 C188.99415583 -0.20212482 188.99415583 -0.20212482 190.04864491 -0.20200273 C191.44211901 -0.20184098 192.8355931 -0.20167379 194.22906719 -0.20150116 C215.90008796 -0.19905117 237.57085822 -0.22905327 259.24180731 -0.28379142 C283.58298241 -0.34524872 307.92395111 -0.37960463 332.26521614 -0.37593853 C345.15527019 -0.3746098 358.04504187 -0.38563415 370.93503127 -0.42865074 C381.91230871 -0.4650484 392.88917587 -0.47379117 403.86648748 -0.44661304 C409.46789649 -0.43353878 415.06851814 -0.43337043 420.66985258 -0.46802604 C425.79949439 -0.49943668 430.92772301 -0.49381625 436.0573298 -0.45888951 C437.91138242 -0.45273795 439.76553983 -0.46005895 441.61946891 -0.48232982 C458.37248687 -0.67022454 458.37248687 -0.67022454 465.7769511 6.52323902 C466.39385219 7.18858889 467.01075327 7.85393877 467.64634833 8.53945076 C468.80220628 9.57747879 469.96559522 10.60731177 471.14244208 11.62148201 C472.12599984 12.52829925 473.10659402 13.43834396 474.08384833 14.35195076 C474.83698309 15.04707772 474.83698309 15.04707772 475.6053327 15.75624764 C477.99899145 17.97236348 480.36294322 20.20960352 482.64634833 22.53945076 C480.66634833 23.03445076 480.66634833 23.03445076 478.64634833 23.53945076 C478.64634833 22.87945076 478.64634833 22.21945076 478.64634833 21.53945076 C477.84197333 21.16820076 477.84197333 21.16820076 477.02134833 20.78945076 C468.98677386 16.56072736 468.98677386 16.56072736 467.64634833 12.53945076 C465.85387969 10.72289454 465.85387969 10.72289454 463.70884833 8.97695076 C461.61290869 7.20814509 459.58639945 5.47950189 457.64634833 3.53945076 C455.11817316 3.33921188 452.69906229 3.26522018 450.16941008 3.27773774 C449.38538538 3.27374167 448.60136067 3.26974561 447.79357764 3.26562846 C445.13851242 3.2545671 442.4836526 3.25786762 439.82856879 3.26097786 C437.91705769 3.25597993 436.00554871 3.25010563 434.09404275 3.24342513 C428.81962206 3.22755026 423.54525453 3.22419036 418.27081284 3.22277653 C412.59116109 3.21909548 406.91153895 3.20394659 401.23190436 3.19016182 C391.38433134 3.16784428 381.5367688 3.15285808 371.68917593 3.14279473 C357.45106006 3.12823414 343.21298064 3.10270478 328.9748861 3.07446344 C305.87677571 3.02894767 282.77866186 2.9923356 259.68052801 2.96132576 C237.2374848 2.93117427 214.79445436 2.89684154 192.35142645 2.85683358 C191.65994162 2.85560257 190.96845678 2.85437157 190.25601786 2.85310326 C183.3120028 2.84073668 176.36798789 2.82828493 169.42397309 2.81577078 C111.16478322 2.71078703 52.90557669 2.62018173 -5.35365167 2.53945076 C-5.68365167 3.52945076 -6.01365167 4.51945076 -6.35365167 5.53945076 C-7.01365167 5.20945076 -7.67365167 4.87945076 -8.35365167 4.53945076 C-6.28233729 0.56961263 -4.37207689 0.0722664 0 0 Z " fill="#EDC06F" transform="translate(125.3536516726017,100.46054923534393)"/>
<path d="M0 0 C0.85758911 -0.00315216 1.71517822 -0.00630432 2.59875488 -0.009552 C3.53102905 -0.00752777 4.46330322 -0.00550354 5.42382812 -0.00341797 C6.84979309 -0.00485306 6.84979309 -0.00485306 8.30456543 -0.00631714 C10.31876695 -0.00699904 12.33297065 -0.00514409 14.34716797 -0.00097656 C17.44178167 0.00437155 20.53625022 -0.00092124 23.63085938 -0.00732422 C25.58268261 -0.00666344 27.53450576 -0.00538228 29.48632812 -0.00341797 C30.41860229 -0.0054422 31.35087646 -0.00746643 32.31140137 -0.009552 C33.16899048 -0.00639984 34.02657959 -0.00324768 34.91015625 0 C35.66880981 0.00079559 36.42746338 0.00159119 37.20910645 0.00241089 C38.95507812 0.12939453 38.95507812 0.12939453 39.95507812 1.12939453 C40.04245458 2.98309064 40.06205966 4.84006994 40.05273438 6.69580078 C40.04951172 7.82050781 40.04628906 8.94521484 40.04296875 10.10400391 C40.03458984 11.28800781 40.02621094 12.47201172 40.01757812 13.69189453 C40.01306641 14.87976563 40.00855469 16.06763672 40.00390625 17.29150391 C39.99207487 20.23751679 39.97559099 23.18343134 39.95507812 26.12939453 C39.29507813 25.79939453 38.63507813 25.46939453 37.95507812 25.12939453 C37.95507812 17.86939453 37.95507812 10.60939453 37.95507812 3.12939453 C36.96507812 3.45939453 35.97507812 3.78939453 34.95507812 4.12939453 C32.22348253 4.21446532 29.51816369 4.24531018 26.78710938 4.22705078 C25.9922966 4.22563583 25.19748383 4.22422089 24.37858582 4.22276306 C21.84154487 4.21716831 19.30459237 4.20461681 16.76757812 4.19189453 C15.04687628 4.18687885 13.32617304 4.18231606 11.60546875 4.17822266 C7.38863783 4.1672006 3.17187297 4.14993959 -1.04492188 4.12939453 C-1.02171875 4.74427734 -0.99851562 5.35916016 -0.97460938 5.99267578 C-0.9565625 6.80091797 -0.93851562 7.60916016 -0.91992188 8.44189453 C-0.89671875 9.24240234 -0.87351562 10.04291016 -0.84960938 10.86767578 C-1.04492188 13.12939453 -1.04492188 13.12939453 -3.04492188 16.12939453 C-6.36234622 17.10300954 -9.5323576 17.25344366 -12.97407532 17.24964905 C-13.9401622 17.25102371 -14.90624908 17.25239838 -15.90161133 17.2538147 C-16.94961914 17.25021942 -17.99762695 17.24662415 -19.07739258 17.24291992 C-20.74634834 17.24313896 -20.74634834 17.24313896 -22.44902039 17.24336243 C-26.12293453 17.24266633 -29.79679784 17.23488803 -33.47070312 17.22705078 C-36.01946485 17.22518553 -38.56822693 17.22376213 -41.11698914 17.22276306 C-47.13754723 17.21933635 -53.15808354 17.21145657 -59.17863292 17.20141357 C-66.03472229 17.19022571 -72.89081255 17.18473525 -79.74690878 17.17971814 C-93.84625656 17.16927323 -107.94558822 17.15169046 -122.04492188 17.12939453 C-119.45666396 21.20433869 -119.45666396 21.20433869 -116.29492188 24.81689453 C-115.04492188 26.12939453 -115.04492188 26.12939453 -115.04492188 29.12939453 C-114.05492187 29.45939453 -113.06492188 29.78939453 -112.04492188 30.12939453 C-111.17845687 31.68903155 -110.31795844 33.25219078 -109.48242188 34.82861328 C-106.89281629 38.97338961 -103.57252033 42.57112264 -100.38476562 46.26220703 C-98.28583639 48.83418376 -96.46567391 51.13057536 -95.04492188 54.12939453 C-95.35742188 56.44189453 -95.35742188 56.44189453 -96.04492188 58.12939453 C-96.46 57.54416016 -96.87507813 56.95892578 -97.30273438 56.35595703 C-101.71025931 50.21492856 -106.27112139 44.21404135 -110.91992188 38.25439453 C-111.5196582 37.48498535 -112.11939453 36.71557617 -112.73730469 35.92285156 C-115.0390274 32.97264241 -117.34217195 30.02360969 -119.65429688 27.08154297 C-121.08007165 25.26717107 -122.50041663 23.44867243 -123.91992188 21.62939453 C-124.72171875 20.60845703 -125.52351562 19.58751953 -126.34960938 18.53564453 C-128.04492188 16.12939453 -128.04492188 16.12939453 -128.04492188 14.12939453 C-121.52133055 13.1500858 -115.17051786 12.9932291 -108.58007812 13.01586914 C-107.4572493 13.01572311 -106.33442047 13.01557709 -105.17756653 13.01542664 C-101.48749827 13.0161201 -97.79748126 13.02388593 -94.10742188 13.03173828 C-91.54052762 13.03360447 -88.97363302 13.03502743 -86.40673828 13.036026 C-80.35440628 13.03944654 -74.30209524 13.04731811 -68.24977112 13.05737549 C-61.35491884 13.06858236 -54.46006566 13.07405857 -47.56520653 13.07907093 C-33.39176855 13.08950206 -19.21834586 13.10707289 -5.04492188 13.12939453 C-5.05652344 12.27474609 -5.068125 11.42009766 -5.08007812 10.53955078 C-5.08910156 9.43482422 -5.098125 8.33009766 -5.10742188 7.19189453 C-5.11902344 6.08974609 -5.130625 4.98759766 -5.14257812 3.85205078 C-4.99060394 -0.38498944 -3.83108246 0.00401762 0 0 Z " fill="#F0BA4E" transform="translate(344.044921875,145.87060546875)"/>
<path d="M0 0 C1.23165894 0.00990463 2.46331787 0.01980927 3.7322998 0.03001404 C7.64568815 0.06903302 11.55621705 0.1568445 15.46875 0.24609375 C18.13016729 0.28518939 20.79155772 0.31315852 23.453125 0.34179688 C29.95930019 0.41875492 36.46382078 0.53572397 42.96875 0.68359375 C42.96875 3.68359375 42.96875 3.68359375 40.40625 6.35546875 C39.26812363 7.39005268 38.12175804 8.41562126 36.96875 9.43359375 C36.37151123 9.97218018 35.77427246 10.5107666 35.15893555 11.06567383 C33.43688672 12.61428224 31.7053004 14.15128147 29.96875 15.68359375 C29.21207031 16.35261719 28.45539063 17.02164063 27.67578125 17.7109375 C26.42150862 18.81004238 25.16373244 19.90516299 23.90234375 20.99609375 C21.69022948 22.9266662 19.5178609 24.89783264 17.34375 26.87109375 C13.34144197 30.48726793 9.26591812 34.00366574 5.15625 37.49609375 C-0.75376199 42.52427907 -6.47165361 47.73124182 -12.15234375 53.015625 C-16.74678261 57.27342926 -21.47616591 61.35851845 -26.2421875 65.421875 C-32.7842605 71.0037594 -39.246751 76.64066391 -45.5859375 82.453125 C-47.71163898 84.39206357 -49.85903049 86.2971926 -52.03125 88.18359375 C-55.24024244 90.97173473 -58.39041444 93.8188756 -61.53125 96.68359375 C-65.33077858 100.14817766 -69.15850718 103.5719667 -73.0390625 106.9453125 C-76.72757451 110.16372004 -80.37674531 113.42668564 -84.03125 116.68359375 C-84.36125 115.36359375 -84.69125 114.04359375 -85.03125 112.68359375 C-84.37125 112.68359375 -83.71125 112.68359375 -83.03125 112.68359375 C-83.03125 112.02359375 -83.03125 111.36359375 -83.03125 110.68359375 C-78.56066176 106.68359375 -78.56066176 106.68359375 -76.03125 106.68359375 C-75.70125 105.69359375 -75.37125 104.70359375 -75.03125 103.68359375 C-73.32421875 102.21875 -73.32421875 102.21875 -71.21875 100.74609375 C-68.89464073 99.07538175 -66.87354042 97.52588417 -64.84375 95.49609375 C-63.03125 93.68359375 -63.03125 93.68359375 -60.46875 92.24609375 C-57.90444452 90.87391117 -57.90444452 90.87391117 -56.78125 88.43359375 C-54.59398504 84.9964631 -51.96449843 83.20343372 -48.71484375 80.796875 C-44.96154407 77.8412198 -41.5307331 74.56715512 -38.10571289 71.23974609 C-34.35365499 67.68359375 -34.35365499 67.68359375 -31.03125 67.68359375 C-30.70125 65.70359375 -30.37125 63.72359375 -30.03125 61.68359375 C-29.40476562 61.5134375 -28.77828125 61.34328125 -28.1328125 61.16796875 C-27.31554687 60.925625 -26.49828125 60.68328125 -25.65625 60.43359375 C-24.43808594 60.08554688 -24.43808594 60.08554688 -23.1953125 59.73046875 C-20.54289177 58.44734825 -20.16320909 57.32835798 -19.03125 54.68359375 C-17.69791667 54.01692708 -16.36458333 53.35026042 -15.03125 52.68359375 C-13.76320434 50.64999895 -13.76320434 50.64999895 -13.03125 48.68359375 C-12.37125 48.68359375 -11.71125 48.68359375 -11.03125 48.68359375 C-10.70125 47.69359375 -10.37125 46.70359375 -10.03125 45.68359375 C-4.56613372 40.68359375 -4.56613372 40.68359375 -2.03125 40.68359375 C-1.70125 39.36359375 -1.37125 38.04359375 -1.03125 36.68359375 C-0.37125 36.68359375 0.28875 36.68359375 0.96875 36.68359375 C1.62875 35.69359375 2.28875 34.70359375 2.96875 33.68359375 C3.95875 33.35359375 4.94875 33.02359375 5.96875 32.68359375 C7.17757096 30.68342909 7.17757096 30.68342909 7.96875 28.68359375 C8.62875 29.01359375 9.28875 29.34359375 9.96875 29.68359375 C9.96875 29.02359375 9.96875 28.36359375 9.96875 27.68359375 C11.28875 27.35359375 12.60875 27.02359375 13.96875 26.68359375 C13.96875 26.02359375 13.96875 25.36359375 13.96875 24.68359375 C15.39453125 23.17578125 15.39453125 23.17578125 17.28125 21.55859375 C17.89613281 21.01976563 18.51101563 20.4809375 19.14453125 19.92578125 C20.96875 18.68359375 20.96875 18.68359375 23.96875 18.68359375 C24.18273437 18.131875 24.39671875 17.58015625 24.6171875 17.01171875 C26.422261 13.90240139 28.91675064 11.77087238 31.59375 9.43359375 C32.109375 8.9746875 32.625 8.51578125 33.15625 8.04296875 C34.4222102 6.91767079 35.69482942 5.79987198 36.96875 4.68359375 C29.9396051 4.6074895 22.91056658 4.55497102 15.88110352 4.51879883 C13.4901126 4.50371832 11.09914932 4.48325098 8.70825195 4.45727539 C5.27027565 4.42086069 1.83266531 4.40385976 -1.60546875 4.390625 C-2.67335129 4.37514114 -3.74123383 4.35965729 -4.84147644 4.34370422 C-11.94214454 4.28465247 -11.94214454 4.28465247 -18.03125 7.68359375 C-18.959375 8.40546875 -19.8875 9.12734375 -20.84375 9.87109375 C-21.565625 10.46921875 -22.2875 11.06734375 -23.03125 11.68359375 C-18.30869894 1.15407484 -10.73715637 -0.32773669 0 0 Z " fill="#F4C05A" transform="translate(676.03125,100.31640625)"/>
<path d="M0 0 C0.93339203 -0.01299637 1.86678406 -0.02599274 2.82846069 -0.03938293 C12.61446449 -0.1663443 22.40134558 -0.22289665 32.18798828 -0.27441406 C36.83170255 -0.30114036 41.47438783 -0.34983906 46.11767578 -0.41796875 C51.72105315 -0.49998285 57.32345176 -0.54260963 62.92739677 -0.55747795 C65.06167333 -0.56971864 67.19591796 -0.59573499 69.32985115 -0.6359272 C86.07306606 -0.93540782 86.07306606 -0.93540782 91.15463257 1.99934387 C93.15092589 3.9819451 94.61161395 5.87275993 96.10913086 8.24047852 C98.25284246 10.10960977 100.43046469 11.90832763 102.64038086 13.69750977 C104.10913086 15.24047852 104.10913086 15.24047852 104.10913086 18.24047852 C102.81007988 17.50334261 101.52011964 16.75017295 100.23413086 15.99047852 C99.15518555 15.36399414 99.15518555 15.36399414 98.05444336 14.72485352 C95.90038924 13.08119776 95.11772501 11.72480516 94.10913086 9.24047852 C93.11913086 9.24047852 92.12913086 9.24047852 91.10913086 9.24047852 C90.5745929 8.42907913 90.04005493 7.61767975 89.48931885 6.7816925 C86.90786995 4.02560177 86.58535354 3.86206927 83.05950928 3.60124207 C81.38200938 3.56904242 79.70384846 3.56431671 78.02612305 3.58105469 C77.10870331 3.57057098 76.19128357 3.56008728 75.24606323 3.54928589 C72.21570157 3.52049991 69.18647995 3.52683165 66.15600586 3.53344727 C64.05420497 3.52033441 61.95241669 3.50503146 59.85064697 3.48762512 C54.32024511 3.44771429 48.79017245 3.43758072 43.25964355 3.43359375 C36.62320741 3.42263507 29.98694761 3.3747888 23.35064697 3.33310699 C13.26999347 3.27393096 3.19025786 3.26168976 -6.89086914 3.24047852 C-6.89086914 27.99047852 -6.89086914 52.74047852 -6.89086914 78.24047852 C-5.57086914 78.90047852 -4.25086914 79.56047852 -2.89086914 80.24047852 C-4.8904166 80.28302208 -6.8912855 80.28128634 -8.89086914 80.24047852 C-10.58486294 78.54648471 -10.01668494 76.43755414 -10.02639771 74.17718506 C-10.02437347 73.45299377 -10.02234924 72.72880249 -10.02026367 71.98266602 C-10.02201599 71.22334778 -10.02376831 70.46402954 -10.02557373 69.68170166 C-10.02999244 67.15960436 -10.0270542 64.63757659 -10.02368164 62.11547852 C-10.02435467 60.37052395 -10.0253247 58.62556948 -10.02658081 56.88061523 C-10.02805781 53.21865956 -10.02590317 49.55672824 -10.02124023 45.89477539 C-10.01554294 41.19003359 -10.01882194 36.48534883 -10.0248127 31.78060913 C-10.02841826 28.1759396 -10.02727975 24.5712837 -10.02468491 20.96661377 C-10.02401562 19.23138421 -10.02484411 17.49615343 -10.02716446 15.76092529 C-10.02969091 13.34001364 -10.02585052 10.91919565 -10.02026367 8.49829102 C-10.0222879 7.77409973 -10.02431213 7.04990845 -10.02639771 6.30377197 C-9.99331805 -1.39457294 -6.7807598 0.06829857 0 0 Z " fill="#F3BD5B" transform="translate(408.890869140625,145.759521484375)"/>
<path d="M0 0 C0.99 0.495 0.99 0.495 2 1 C1.83513693 7.42965992 -1.73300384 11.53530518 -6 16 C-13.52998738 22.20998959 -21.89321663 23.30885992 -31.35351562 23.22705078 C-32.25201233 23.22734283 -33.15050903 23.22763489 -34.07623291 23.22793579 C-37.01967326 23.22655239 -39.96285436 23.2110381 -42.90625 23.1953125 C-44.95747743 23.19157885 -47.00870666 23.18873354 -49.05993652 23.18673706 C-54.43901559 23.17912834 -59.81798537 23.15950369 -65.19702148 23.1373291 C-70.69383262 23.11681103 -76.19066154 23.10772262 -81.6875 23.09765625 C-92.45838889 23.07625508 -103.22916823 23.04109557 -114 23 C-113.505 37.355 -113.505 37.355 -113 52 C-114.485 52.495 -114.485 52.495 -116 53 C-119.23393337 49.92813163 -121.89868827 46.63678546 -124.5625 43.0625 C-125.32691406 42.04285156 -126.09132812 41.02320313 -126.87890625 39.97265625 C-128.73167511 37.37605017 -130.40804072 34.76176962 -132 32 C-128.41209425 32.29899215 -127.21833224 32.76986601 -124.6875 35.4375 C-123 38 -123 38 -123 40 C-121.515 39.505 -121.515 39.505 -120 39 C-119.34 39.99 -118.68 40.98 -118 42 C-117.23232662 35.68040306 -116.91963248 29.51887782 -117.0625 23.15234375 C-117 21 -117 21 -116 20 C-113.05970722 19.89063413 -110.14204532 19.84576285 -107.20092773 19.84228516 C-106.27728928 19.83720444 -105.35365082 19.83212372 -104.40202332 19.82688904 C-102.38801979 19.81615806 -100.37400414 19.80754867 -98.35998344 19.80076981 C-95.16937351 19.78901009 -91.97890074 19.76956225 -88.78834534 19.74765015 C-79.71367992 19.6859541 -70.63902585 19.63207153 -61.56420898 19.59863281 C-56.01919473 19.57764741 -50.47442584 19.54230507 -44.92955208 19.49787521 C-42.81775878 19.48373712 -40.70592202 19.47499774 -38.59408379 19.47182083 C-35.63074112 19.46689371 -32.66804463 19.4436864 -29.70483398 19.41650391 C-28.40382751 19.42101311 -28.40382751 19.42101311 -27.07653809 19.4256134 C-19.9478505 19.32885899 -13.4833056 17.92464115 -8.0625 12.9375 C-7.49660156 12.43089844 -6.93070312 11.92429688 -6.34765625 11.40234375 C-4.88673482 10.02122224 -4.88673482 10.02122224 -4 8 C-3.34 8 -2.68 8 -2 8 C-1.855625 6.865625 -1.71125 5.73125 -1.5625 4.5625 C-1 1 -1 1 0 0 Z " fill="#F5C65A" transform="translate(381,172)"/>
<path d="M0 0 C152.79 0 305.58 0 463 0 C463.33 0.66 463.66 1.32 464 2 C311.21 1.67 158.42 1.34 1 1 C0.67 2.32 0.34 3.64 0 5 C-1.4073176 7.13901061 -2.82731799 9.15739179 -4.375 11.1875 C-4.77460937 11.73341797 -5.17421875 12.27933594 -5.5859375 12.84179688 C-7.65264079 15.58493758 -8.66853352 16.88951117 -12 18 C-10.63784946 14.37628852 -9.02523511 11.08615026 -7.0625 7.75 C-6.30646484 6.44289063 -6.30646484 6.44289063 -5.53515625 5.109375 C-4 3 -4 3 -1 2 C-0.67 1.34 -0.34 0.68 0 0 Z " fill="#FDBC4B" transform="translate(120,103)"/>
<path d="M0 0 C0.99 0.33 1.98 0.66 3 1 C1.87811441 2.14888283 0.75238316 3.29401137 -0.375 4.4375 C-1.00148438 5.07558594 -1.62796875 5.71367187 -2.2734375 6.37109375 C-5.53261955 9.44593293 -8.01047615 9.12363951 -12.39065552 9.12025452 C-13.05389985 9.12110894 -13.71714418 9.12196337 -14.40048683 9.12284368 C-16.63306648 9.1244968 -18.86557175 9.11897987 -21.09814453 9.11352539 C-22.69447833 9.11324346 -24.29081227 9.11340137 -25.887146 9.1139679 C-30.22987556 9.11425563 -34.57257768 9.1083628 -38.91530085 9.10139394 C-43.45035826 9.09515638 -47.98541625 9.09455628 -52.52047729 9.09336853 C-61.11233045 9.0902564 -69.70417092 9.08204461 -78.29601848 9.07201904 C-88.07580451 9.06085423 -97.85559113 9.05534652 -107.63538194 9.05032361 C-127.75692837 9.0398619 -147.87846339 9.02226474 -168 9 C-168 8.01 -168 7.02 -168 6 C-113.88 6 -59.76 6 -4 6 C-3.67 4.68 -3.34 3.36 -3 2 C-2.01 2 -1.02 2 0 2 C0 1.34 0 0.68 0 0 Z " fill="#FEBC54" transform="translate(587,217)"/>
<path d="M0 0 C5.24375241 2.27823224 8.61524932 4.23627682 12 9 C12.99 9.66 13.98 10.32 15 11 C15 11.66 15 12.32 15 13 C15.53625 13.2475 16.0725 13.495 16.625 13.75 C19.5823982 15.30652537 22.29724051 17.03435673 25 19 C25 19.66 25 20.32 25 21 C25.598125 21.28875 26.19625 21.5775 26.8125 21.875 C31.82258065 24.4516129 31.82258065 24.4516129 32.6875 27.125 C32.790625 27.74375 32.89375 28.3625 33 29 C29.63743102 27.49609874 27.06970558 25.54747098 24.25 23.1875 C23.31308571 22.42686595 22.37617142 21.6662319 21.41086578 20.88254833 C19.03438776 18.92165767 16.81640931 16.86610338 14.62154388 14.70477009 C3.93330382 4.57120612 -4.44009605 3.1371953 -18.81835938 3.43237305 C-20.86012681 3.42616316 -22.90188352 3.41422822 -24.94358826 3.39706421 C-30.43751086 3.36684474 -35.92810306 3.41580169 -41.42162514 3.47994971 C-47.18048622 3.53341166 -52.93909265 3.51272339 -58.69812012 3.50019836 C-69.58147616 3.48764291 -80.46345461 3.54091725 -91.34650183 3.61836988 C-103.74567753 3.70336807 -116.14457972 3.71418019 -128.54400539 3.71903551 C-154.02987744 3.73066293 -179.51469468 3.8345612 -205 4 C-205 3.67 -205 3.34 -205 3 C-164.9708219 1.32659696 -125.0272863 0.70055439 -84.96768606 0.79940498 C-79.15851751 0.81303299 -73.34938599 0.81509416 -67.54020363 0.8144539 C-60.47036148 0.81378061 -53.40054172 0.82065803 -46.33070636 0.8299005 C-44.3286877 0.83201826 -42.3266676 0.83258363 -40.3246479 0.83313942 C-36.63900852 0.83529604 -32.95344535 0.84401217 -29.26782227 0.85473633 C-28.17800049 0.85428314 -27.08817871 0.85382996 -25.96533203 0.85336304 C-24.96808609 0.85762802 -23.97084015 0.86189301 -22.94337463 0.86628723 C-22.07977609 0.86796308 -21.21617754 0.86963892 -20.32640934 0.87136555 C-18.08080773 0.99553189 -16.16940666 1.44213282 -14 2 C-11.76813649 1.94004762 -9.53754209 1.80938199 -7.3125 1.625 C-6.15363281 1.53476563 -4.99476563 1.44453125 -3.80078125 1.3515625 C-1.09879836 1.30330971 -1.09879836 1.30330971 0 0 Z " fill="#E5B861" transform="translate(557,131)"/>
<path d="M0 0 C6.50896388 -0.33162016 13.01573228 -0.5580424 19.53125 -0.71411133 C21.7433406 -0.77920132 23.95487791 -0.86771192 26.16503906 -0.98071289 C44.01669743 -1.87007639 44.01669743 -1.87007639 48.95306396 1.22427368 C52.57376123 4.60244041 54.71689876 8.62815772 57 13 C58.4245885 14.9624449 59.87848648 16.90433606 61.375 18.8125 C62.50432035 20.32289154 63.6336175 21.83330059 64.76220703 23.34423828 C66.60365534 25.8074932 68.44949243 28.26744926 70.29516602 30.72753906 C71.30758155 32.07699204 72.31978825 33.42660171 73.33178711 34.77636719 C75.97128454 38.2968163 78.61284168 41.81569212 81.2578125 45.33203125 C81.79043701 46.04069336 82.32306152 46.74935547 82.87182617 47.47949219 C83.88173393 48.82309627 84.89226701 50.16623066 85.90356445 51.50878906 C86.82414987 52.73410345 87.7416689 53.96172902 88.65576172 55.19189453 C89.58221184 56.43804229 90.51663486 57.67828879 91.45751953 58.91357422 C95 63.6630115 95 63.6630115 95 67 C88.18726002 67.25473477 81.37575733 67.42914803 74.55932617 67.54931641 C72.24375527 67.59943349 69.92849814 67.66755016 67.61401367 67.75439453 C48.4386995 68.45557831 48.4386995 68.45557831 42.6340332 64.9909668 C40.32535122 62.44853712 38.67464704 59.98940743 37 57 C35.95217451 55.66971449 34.88243725 54.35620166 33.78515625 53.06640625 C32.87387223 51.90134693 31.96618978 50.73345968 31.0625 49.5625 C30.59521484 48.96501953 30.12792969 48.36753906 29.64648438 47.75195312 C27.67190316 45.21644353 25.78341649 42.67512474 24 40 C29.5863683 41.06407015 31.65792827 43.61415125 34.80078125 48.02734375 C36 50 36 50 37 53 C37.99 53.495 37.99 53.495 39 54 C40.36244796 55.64295195 41.69864875 57.30824337 43 59 C42.505 59.99 42.505 59.99 42 61 C43.32 61.33 44.64 61.66 46 62 C46 62.66 46 63.32 46 64 C59.86 63.67 73.72 63.34 88 63 C87.20197185 59.8078874 86.25768711 57.01844907 85 54 C84.34 54 83.68 54 83 54 C81.7734375 52.3828125 81.7734375 52.3828125 80.375 50.125 C77.45721701 45.55740885 74.16296131 41.46996633 70.63671875 37.359375 C69 35 69 35 68.51953125 32.328125 C68.26236328 31.17570312 68.26236328 31.17570312 68 30 C66.66806832 29.33053736 65.33454904 28.66422969 64 28 C62.55200195 26.44360352 62.55200195 26.44360352 61.23828125 24.62890625 C60.75939453 23.97212891 60.28050781 23.31535156 59.78710938 22.63867188 C59.30048828 21.95353516 58.81386719 21.26839844 58.3125 20.5625 C57.81427734 19.88123047 57.31605469 19.19996094 56.80273438 18.49804688 C54.73611055 15.63505782 53.1258016 13.3774048 52 10 C50.7315625 8.7315625 50.7315625 8.7315625 49.4375 7.4375 C48.633125 6.633125 47.82875 5.82875 47 5 C47 4.34 47 3.68 47 3 C45.35 3 43.7 3 42 3 C42 2.67 42 2.34 42 2 C27.81 2 13.62 2 -1 2 C-0.67 1.34 -0.34 0.68 0 0 Z " fill="#ECBD63" transform="translate(147,159)"/>
<path d="M0 0 C0.66 0 1.32 0 2 0 C2 0.66 2 1.32 2 2 C1.21625 2.61875 0.4325 3.2375 -0.375 3.875 C-3.0338123 5.72186598 -3.0338123 5.72186598 -3.953125 7.94921875 C-5.13527955 10.26500659 -6.34510126 11.33751431 -8.375 12.9375 C-10.70719688 14.83602391 -12.28455988 16.37662337 -14.125 18.8125 C-16.44505854 21.51923496 -17.53291601 21.52554028 -21 22 C-22.77384259 22.08916551 -24.55048938 22.13045374 -26.3265686 22.13371277 C-27.3808757 22.13797775 -28.4351828 22.14224274 -29.5214386 22.14663696 C-30.6675914 22.14618378 -31.8137442 22.14573059 -32.99462891 22.14526367 C-34.20973648 22.14862228 -35.42484406 22.1519809 -36.67677307 22.15544128 C-40.00097172 22.16330335 -43.32510791 22.16661815 -46.64931154 22.16725707 C-48.72631758 22.16796867 -50.80331709 22.17010498 -52.8803215 22.17275429 C-60.12627325 22.18199602 -67.37220662 22.1860903 -74.61816406 22.18530273 C-81.37390875 22.184701 -88.12957384 22.19527449 -94.88529837 22.2110464 C-100.68752501 22.22411 -106.48972556 22.22948719 -112.2919668 22.22884732 C-115.75672164 22.22859215 -119.22140558 22.23145427 -122.68614578 22.24202538 C-126.54551582 22.25348039 -130.40477585 22.24896683 -134.26416016 22.24291992 C-135.98946205 22.25134918 -135.98946205 22.25134918 -137.74961853 22.25994873 C-138.79828598 22.25575424 -139.84695343 22.25155975 -140.92739868 22.24723816 C-141.83993219 22.24778293 -142.75246571 22.24832769 -143.69265175 22.24888897 C-146 22 -146 22 -149 20 C-149.29296875 17.1796875 -149.29296875 17.1796875 -149.1875 13.875 C-149.16042969 12.77929688 -149.13335937 11.68359375 -149.10546875 10.5546875 C-149.07066406 9.71164063 -149.03585937 8.86859375 -149 8 C-144.27967132 6.78104087 -139.72917773 6.90479002 -134.89526367 6.97827148 C-133.98745148 6.98787903 -133.07963928 6.99748657 -132.14431763 7.00738525 C-129.15212036 7.04029189 -126.16007292 7.08065593 -123.16796875 7.12109375 C-121.09003727 7.14540301 -119.01210029 7.16924617 -116.93415833 7.19264221 C-111.47117842 7.2554029 -106.00829618 7.32449225 -100.54541016 7.39489746 C-94.96846964 7.46565332 -89.39146 7.53042687 -83.81445312 7.59570312 C-72.87622611 7.72461214 -61.93809295 7.86020676 -51 8 C-50.67 7.34 -50.34 6.68 -50 6 C-50 6.99 -50 7.98 -50 9 C-81.68 9 -113.36 9 -146 9 C-145.67 12.3 -145.34 15.6 -145 19 C-129.02257772 19.23203649 -113.04585618 19.41021972 -97.06715679 19.51812172 C-89.64696893 19.56956702 -82.22785064 19.63963066 -74.80834961 19.75439453 C-68.33724539 19.85444054 -61.86691605 19.91866853 -55.39505988 19.94088495 C-51.97150497 19.95386202 -48.55016561 19.98408762 -45.12732506 20.05730057 C-28.4029271 21.11326096 -28.4029271 21.11326096 -14.02270508 14.18896484 C-12.63758661 12.49451201 -11.29195713 10.76651362 -10 9 C-8.51176609 7.63037537 -6.99558777 6.28960238 -5.4375 5 C-3.55729377 3.37387569 -1.7589547 1.7589547 0 0 Z " fill="#E8B355" transform="translate(581,171)"/>
<path d="M0 0 C1.71760029 0.00085938 3.43520113 0.00093632 5.15280151 0.00028992 C9.76977719 0.00144229 14.38662345 0.01580187 19.00356293 0.03323364 C21.87593303 0.04297191 24.74828358 0.0488057 27.6206665 0.05322266 C65.70971672 0.11179829 103.79200572 0.57109639 141.875 1.23046875 C141.875 1.56046875 141.875 1.89046875 141.875 2.23046875 C135.90519054 2.32316962 129.93536426 2.41414536 123.96546555 2.50092983 C122.91956694 2.51618001 122.91956694 2.51618001 121.85253906 2.53173828 C121.13193928 2.54224496 120.41133949 2.55275164 119.66890335 2.5635767 C115.11000703 2.63127732 110.55138136 2.70871548 105.99275589 2.79261017 C88.25105087 3.11560341 70.52782374 3.26170453 52.78356934 3.06135559 C45.13782511 2.97578671 37.49203593 2.94058556 29.8458786 2.91520596 C24.45324071 2.89351401 19.06389319 2.84270518 13.67236328 2.72848511 C8.54003325 2.61992571 3.41175729 2.58189285 -1.7216568 2.59450722 C-3.62157231 2.58629891 -5.52158334 2.55209152 -7.42049408 2.48976707 C-17.28425506 1.87717987 -17.28425506 1.87717987 -25.92207336 5.78191376 C-29.42618731 9.86710326 -31.86135634 14.37075276 -34.125 19.23046875 C-35.125 16.23046875 -35.125 16.23046875 -33.76171875 13.3125 C-33.11847656 12.23355469 -32.47523438 11.15460938 -31.8125 10.04296875 C-31.17699219 8.95628906 -30.54148438 7.86960938 -29.88671875 6.75 C-29.30535156 5.91855469 -28.72398437 5.08710938 -28.125 4.23046875 C-27.465 4.23046875 -26.805 4.23046875 -26.125 4.23046875 C-26.125 3.57046875 -26.125 2.91046875 -26.125 2.23046875 C-17.47031137 -0.25664529 -8.91688211 -0.04123626 0 0 Z " fill="#F9BE53" transform="translate(170.125,131.76953125)"/>
<path d="M0 0 C0.66 0 1.32 0 2 0 C2 0.66 2 1.32 2 2 C30.71 2 59.42 2 89 2 C89 2.33 89 2.66 89 3 C60.29 3 31.58 3 2 3 C2.495 17.355 2.495 17.355 3 32 C1.515 32.495 1.515 32.495 0 33 C-3.23393337 29.92813163 -5.89868827 26.63678546 -8.5625 23.0625 C-9.32691406 22.04285156 -10.09132812 21.02320313 -10.87890625 19.97265625 C-12.73167511 17.37605017 -14.40804072 14.76176962 -16 12 C-12.41209425 12.29899215 -11.21833224 12.76986601 -8.6875 15.4375 C-7 18 -7 18 -7 20 C-6.01 19.67 -5.02 19.34 -4 19 C-3.34 19.99 -2.68 20.98 -2 22 C-1.23232662 15.68040306 -0.91963248 9.51887782 -1.0625 3.15234375 C-1 1 -1 1 0 0 Z " fill="#F8BC68" transform="translate(265,192)"/>
<path d="M0 0 C1.63949506 1.40040203 3.27779174 2.80223029 4.91015625 4.2109375 C6.34379931 5.43824315 7.78987407 6.65113097 9.24609375 7.8515625 C9.96925781 8.45742187 10.69242188 9.06328125 11.4375 9.6875 C12.11683594 10.24824219 12.79617188 10.80898437 13.49609375 11.38671875 C15 13 15 13 15 16 C-15.03 16 -45.06 16 -76 16 C-76 15.34 -76 14.68 -76 14 C-13.8958584 12.57558862 -13.8958584 12.57558862 13 14 C12.06671875 13.38253906 11.1334375 12.76507813 10.171875 12.12890625 C6.10480746 9.39916264 2.73195825 7.09793737 0 3 C0 2.01 0 1.02 0 0 Z " fill="#F6B63F" transform="translate(515,163)"/>
<path d="M0 0 C0.495 0.99 0.495 0.99 1 2 C0.08227539 3.84985352 0.08227539 3.84985352 -1.40234375 6.12890625 C-1.95575439 6.98782471 -2.50916504 7.84674316 -3.0793457 8.73168945 C-3.99913208 10.13294067 -3.99913208 10.13294067 -4.9375 11.5625 C-6.22147595 13.5467962 -7.50532487 15.53117461 -8.7890625 17.515625 C-9.81241699 19.08860352 -9.81241699 19.08860352 -10.85644531 20.69335938 C-13.07377588 24.11380644 -15.27105325 27.54632994 -17.4609375 30.984375 C-17.82564651 31.55659286 -18.19035553 32.12881073 -18.56611633 32.71836853 C-19.29128135 33.85615411 -20.01640494 34.99396608 -20.7414856 36.13180542 C-22.45747799 38.82463487 -24.17433479 41.51688444 -25.89453125 44.20703125 C-26.47050049 45.1091333 -27.04646973 46.01123535 -27.63989258 46.94067383 C-29 49 -29 49 -30 50 C-31.44289787 50.09295815 -32.89029785 50.11746513 -34.33618164 50.11352539 C-35.71750023 50.11341209 -35.71750023 50.11341209 -37.12672424 50.11329651 C-38.12775681 50.10813522 -39.12878937 50.10297394 -40.16015625 50.09765625 C-41.17975937 50.0962413 -42.19936249 50.09482635 -43.24986267 50.09336853 C-46.52077107 50.08775097 -49.79161213 50.0751955 -53.0625 50.0625 C-55.27408756 50.05748726 -57.48567618 50.05292396 -59.69726562 50.04882812 C-65.13153357 50.03777584 -70.56576197 50.02102063 -76 50 C-75.3791378 46.31702134 -74.93325018 44.42311971 -72 42 C-72.33 44.31 -72.66 46.62 -73 49 C-59.14 49 -45.28 49 -31 49 C-30.01 46.03 -29.02 43.06 -28 40 C-26 36 -26 36 -24.1015625 34.140625 C-20.77828084 30.75557231 -18.85157936 26.61991342 -16.5859375 22.484375 C-16.06257813 21.66453125 -15.53921875 20.8446875 -15 20 C-14.34 20 -13.68 20 -13 20 C-12.79375 19.195625 -12.5875 18.39125 -12.375 17.5625 C-9.71535295 10.67159627 -5.43524317 4.95566289 0 0 Z " fill="#F3C56C" transform="translate(118,176)"/>
<path d="M0 0 C5.5863683 1.06407015 7.65792827 3.61415125 10.80078125 8.02734375 C12 10 12 10 13 13 C13.66 13.33 14.32 13.66 15 14 C16.36244796 15.64295195 17.69864875 17.30824337 19 19 C18.67 19.66 18.34 20.32 18 21 C19.32 21.33 20.64 21.66 22 22 C22 22.66 22 23.32 22 24 C35.86 23.67 49.72 23.34 64 23 C64.33 22.34 64.66 21.68 65 21 C66.485 21.495 66.485 21.495 68 22 C68.6875 24.0625 68.6875 24.0625 69 26 C63.40243358 26.35742727 57.80667522 26.63507519 52.20214844 26.85791016 C49.98315665 26.95637411 47.76498684 27.0745899 45.54785156 27.20849609 C41.96988751 27.41836027 38.3941822 27.55794405 34.8125 27.6875 C33.67965576 27.76742187 32.54681152 27.84734375 31.37963867 27.9296875 C26.53777686 28.05013361 23.3200282 28.02594219 19.40942383 24.98657227 C17.07810287 22.43041668 15.02415658 19.80388107 13 17 C11.9335873 15.68456785 10.86258769 14.37282857 9.78515625 13.06640625 C8.87387223 11.90134693 7.96618978 10.73345968 7.0625 9.5625 C6.59521484 8.96501953 6.12792969 8.36753906 5.64648438 7.75195312 C3.67190316 5.21644353 1.78341649 2.67512474 0 0 Z " fill="#FBB84D" transform="translate(171,199)"/>
<path d="M0 0 C0.66 0 1.32 0 2 0 C2 0.66 2 1.32 2 2 C1.21625 2.61875 0.4325 3.2375 -0.375 3.875 C-3.0338123 5.72186598 -3.0338123 5.72186598 -3.953125 7.94921875 C-5.13527955 10.26500659 -6.34510126 11.33751431 -8.375 12.9375 C-10.6870299 14.7657351 -11.95641598 15.91691383 -13.347229 18.56828308 C-17.70358639 22.56162739 -22.6012159 21.65351742 -28.29589844 21.56762695 C-29.55469315 21.56835709 -30.81348785 21.56908722 -32.11042786 21.56983948 C-35.55878552 21.5712738 -39.00627318 21.54188322 -42.45442867 21.50696969 C-46.05919417 21.47570792 -49.66397973 21.47277563 -53.26885986 21.46684265 C-60.09357587 21.45130355 -66.9178913 21.41027464 -73.74243093 21.3600952 C-81.51257311 21.30420344 -89.28273446 21.27671574 -97.05302763 21.25161803 C-113.03558373 21.19935847 -129.01774021 21.11141543 -145 21 C-145 20.67 -145 20.34 -145 20 C-144.05661538 20.0060963 -144.05661538 20.0060963 -143.09417248 20.01231575 C-127.75158137 20.10800274 -112.40998911 20.14801384 -97.06715679 20.12697029 C-89.64719754 20.11811927 -82.22814023 20.1277274 -74.80834961 20.18164062 C-68.3369427 20.228615 -61.86658339 20.24008941 -55.39505988 20.2099179 C-51.97172857 20.19517151 -48.55043602 20.19753302 -45.12732506 20.24249649 C-28.39574046 21.15176411 -28.39574046 21.15176411 -14.02270508 14.17529297 C-12.63798886 12.48516272 -11.29237619 10.76174432 -10 9 C-8.51150371 7.63066052 -6.99528324 6.28997023 -5.4375 5 C-3.55729377 3.37387569 -1.7589547 1.7589547 0 0 Z " fill="#D8AF68" transform="translate(581,171)"/>
<path d="M0 0 C1.10673834 0.76713644 2.21027694 1.53889003 3.3125 2.3125 C4.23482422 2.95638672 4.23482422 2.95638672 5.17578125 3.61328125 C6.97871338 4.98381853 8.54664819 6.26044968 10 8 C10 8.99 10 9.98 10 11 C-8.15 11 -26.3 11 -45 11 C-43 8 -43 8 -41.08908081 7.60127258 C-39.92325974 7.584618 -39.92325974 7.584618 -38.73388672 7.56762695 C-37.85312469 7.54783279 -36.97236267 7.52803864 -36.06491089 7.50764465 C-35.11278717 7.50125473 -34.16066345 7.49486481 -33.1796875 7.48828125 C-31.71899338 7.46135445 -31.71899338 7.46135445 -30.22879028 7.43388367 C-27.11090458 7.37959368 -23.99317355 7.34582509 -20.875 7.3125 C-18.7643013 7.27934343 -16.65362306 7.24485534 -14.54296875 7.20898438 C-9.36211788 7.12385693 -4.18124743 7.05558664 1 7 C0.34 6.01 -0.32 5.02 -1 4 C-0.34 4 0.32 4 1 4 C0.505 2.02 0.505 2.02 0 0 Z " fill="#F0B950" transform="translate(713,215)"/>
<path d="M0 0 C0.495 1.485 0.495 1.485 1 3 C-0.375 4.5 -0.375 4.5 -2 6 C-2.66 6 -3.32 6 -4 6 C-4 6.99 -4 7.98 -4 9 C-6.95079533 11.22948981 -9.48579624 12.82859875 -13 14 C-13.433125 14.8971875 -13.433125 14.8971875 -13.875 15.8125 C-15.37206594 18.72346154 -17.34303887 20.14012721 -20 22 C-20.66 22 -21.32 22 -22 22 C-22.2475 22.804375 -22.495 23.60875 -22.75 24.4375 C-24 27 -24 27 -25.8125 28 C-28.93879946 28 -30.54003358 26.86159621 -33 25 C-33.33 24.01 -33.66 23.02 -34 22 C-34.99 21.67 -35.98 21.34 -37 21 C-37 20.34 -37 19.68 -37 19 C-38.98 18.67 -40.96 18.34 -43 18 C-43.33 16.35 -43.66 14.7 -44 13 C-40.33809171 13 -39.58503852 14.13419438 -37.0703125 16.60351562 C-36.10866953 17.57425522 -35.15288172 18.55083113 -34.203125 19.53320312 C-31.96342094 21.71413042 -30.66055523 22.97655437 -27.46875 23.08984375 C-24.31822868 21.69902817 -22.35114705 19.89484073 -19.875 17.5 C-15.18449448 13.07007812 -10.35151296 8.94576111 -5.3125 4.91015625 C-3.42324244 3.34960398 -1.68812889 1.77142472 0 0 Z " fill="#F0BF5D" transform="translate(651,111)"/>
<path d="M0 0 C2.31 0 4.62 0 7 0 C7 1.32 7 2.64 7 4 C8.32564289 6.58815993 9.5904268 8.60559618 11.6875 10.625 C13 12 13 12 13 15 C13.99 15.33 14.98 15.66 16 16 C16.86646501 17.55963702 17.72696344 19.12279625 18.5625 20.69921875 C21.15210559 24.84399508 24.47240155 28.44172811 27.66015625 32.1328125 C29.75908549 34.70478923 31.57924797 37.00118083 33 40 C32.6875 42.3125 32.6875 42.3125 32 44 C31.58492187 43.41476563 31.16984375 42.82953125 30.7421875 42.2265625 C26.33466256 36.08553403 21.77380048 30.08464681 17.125 24.125 C16.52526367 23.35559082 15.92552734 22.58618164 15.30761719 21.79345703 C13.00589447 18.84324788 10.70274992 15.89421516 8.390625 12.95214844 C6.96485022 11.13777654 5.54450524 9.3192779 4.125 7.5 C2.92230469 5.96859375 2.92230469 5.96859375 1.6953125 4.40625 C0 2 0 2 0 0 Z " fill="#EBBE61" transform="translate(216,160)"/>
<path d="M0 0 C32.34 0 64.68 0 98 0 C98 0.33 98 0.66 98 1 C96.8195108 0.9792189 95.63902161 0.95843781 94.42276001 0.93702698 C83.27099588 0.75058145 72.12089891 0.64378602 60.96758461 0.61396885 C55.23372984 0.59610658 49.50291422 0.55068179 43.77001953 0.44116211 C38.23174555 0.33639267 32.69742777 0.30547031 27.15824509 0.32465935 C25.05063157 0.31919232 22.94291117 0.28758898 20.83610916 0.22885323 C9.85834336 -0.46910327 9.85834336 -0.46910327 0.09477997 3.55298996 C-3.47764809 7.60054368 -5.83986002 12.08080453 -8 17 C-9 14 -9 14 -7.63671875 11.08203125 C-6.99347656 10.00308594 -6.35023438 8.92414063 -5.6875 7.8125 C-5.05199219 6.72582031 -4.41648438 5.63914063 -3.76171875 4.51953125 C-3.18035156 3.68808594 -2.59898437 2.85664063 -2 2 C-1.34 2 -0.68 2 0 2 C0 1.34 0 0.68 0 0 Z " fill="#DBAA4D" transform="translate(144,134)"/>
<path d="M0 0 C5.77575232 4.07116066 10.94682293 8.63005657 16.13671875 13.41796875 C19.7642998 16.68922533 23.53986012 19.74908133 27.33984375 22.81640625 C31.3320325 26.09340113 35.17330843 29.53235604 39 33 C37.20703125 33.66015625 37.20703125 33.66015625 35 34 C33.32421875 32.99609375 33.32421875 32.99609375 31.6875 31.4375 C31.08550781 30.88191406 30.48351562 30.32632813 29.86328125 29.75390625 C28.94095703 28.88572266 28.94095703 28.88572266 28 28 C26.79763214 26.95145319 25.58944874 25.9095304 24.375 24.875 C23.80394531 24.38257813 23.23289062 23.89015625 22.64453125 23.3828125 C21.15269337 22.128393 19.60988002 20.93522725 18.0625 19.75 C17.0415625 18.88375 17.0415625 18.88375 16 18 C16 17.34 16 16.68 16 16 C14.68 15.34 13.36 14.68 12 14 C12 13.34 12 12.68 12 12 C11.01 12 10.02 12 9 12 C9 11.34 9 10.68 9 10 C8.34 10 7.68 10 7 10 C7 9.34 7 8.68 7 8 C6.401875 7.731875 5.80375 7.46375 5.1875 7.1875 C2.98180967 5.99012525 1.56416813 4.95521016 0 3 C0 2.01 0 1.02 0 0 Z " fill="#EEBB5C" transform="translate(674,181)"/>
<path d="M0 0 C6.50896388 -0.33162016 13.01573228 -0.5580424 19.53125 -0.71411133 C21.7433406 -0.77920132 23.95487791 -0.86771192 26.16503906 -0.98071289 C44.04403537 -1.87143836 44.04403537 -1.87143836 48.96716309 1.24542236 C52.58658852 4.64313823 54.74154006 8.62771864 57 13 C58.13231978 14.52609404 59.29086149 16.03402075 60.5 17.5 C63.27006457 21.21689455 65 24.27386311 65 29 C62.18326263 25.5186392 59.46266038 21.98478693 56.8125 18.375 C56.11769531 17.43398437 55.42289063 16.49296875 54.70703125 15.5234375 C53 13 53 13 52 10 C50.7315625 8.7315625 50.7315625 8.7315625 49.4375 7.4375 C48.633125 6.633125 47.82875 5.82875 47 5 C47 4.34 47 3.68 47 3 C45.35 3 43.7 3 42 3 C42 2.67 42 2.34 42 2 C27.81 2 13.62 2 -1 2 C-0.67 1.34 -0.34 0.68 0 0 Z " fill="#E3B75E" transform="translate(147,159)"/>
<path d="M0 0 C5.24375241 2.27823224 8.61524932 4.23627682 12 9 C12.99 9.66 13.98 10.32 15 11 C15 11.66 15 12.32 15 13 C15.53625 13.2475 16.0725 13.495 16.625 13.75 C19.5823982 15.30652537 22.29724051 17.03435673 25 19 C25 19.66 25 20.32 25 21 C25.598125 21.28875 26.19625 21.5775 26.8125 21.875 C31.82258065 24.4516129 31.82258065 24.4516129 32.6875 27.125 C32.8421875 28.053125 32.8421875 28.053125 33 29 C29.60807548 27.48727964 27.02758017 25.50700272 24.1875 23.125 C20.81229756 20.30775785 17.42200948 17.53496495 13.9453125 14.84375 C12.91821167 14.04300049 12.91821167 14.04300049 11.87036133 13.22607422 C10.5111002 12.16853068 9.14641897 11.11791278 7.77612305 10.07470703 C6.12836299 8.78463512 4.55643226 7.39889863 3 6 C3 5.01 3 4.02 3 3 C-2.61 3 -8.22 3 -14 3 C-14 2.67 -14 2.34 -14 2 C-13.07316406 1.93941406 -12.14632812 1.87882813 -11.19140625 1.81640625 C-9.39509766 1.69072266 -9.39509766 1.69072266 -7.5625 1.5625 C-5.77005859 1.44068359 -5.77005859 1.44068359 -3.94140625 1.31640625 C-1.11429756 1.32343886 -1.11429756 1.32343886 0 0 Z " fill="#EEC162" transform="translate(557,131)"/>
<path d="M0 0 C0.33 0 0.66 0 1 0 C1.33 2.31 1.66 4.62 2 7 C1.01 7 0.02 7 -1 7 C-1 7.66 -1 8.32 -1 9 C-1.66 9 -2.32 9 -3 9 C-3.66 11.31 -4.32 13.62 -5 16 C-5.66 16 -6.32 16 -7 16 C-8.27460466 18.45116281 -9.32367462 20.84771925 -10.3125 23.4375 C-12.09733275 27.20548025 -13.92782644 29.22755069 -17 32 C-17.763125 32.763125 -18.52625 33.52625 -19.3125 34.3125 C-19.869375 34.869375 -20.42625 35.42625 -21 36 C-21 32.27236114 -19.91352386 30.90760649 -17.9296875 27.7734375 C-17.28 26.74089844 -16.6303125 25.70835937 -15.9609375 24.64453125 C-15.27257812 23.56558594 -14.58421875 22.48664063 -13.875 21.375 C-13.20984375 20.31925781 -12.5446875 19.26351562 -11.859375 18.17578125 C-2.57549778 3.48541083 -2.57549778 3.48541083 0 0 Z " fill="#EFBF5C" transform="translate(98,135)"/>
<path d="M0 0 C0.99 0.33 1.98 0.66 3 1 C1.87811441 2.14888283 0.75238316 3.29401137 -0.375 4.4375 C-1.00148438 5.07558594 -1.62796875 5.71367187 -2.2734375 6.37109375 C-4.91778852 8.8658774 -6.55143984 9.12409749 -10.08251953 9.11352539 C-11.34360031 9.11341209 -11.34360031 9.11341209 -12.63015747 9.11329651 C-13.99272171 9.10555458 -13.99272171 9.10555458 -15.3828125 9.09765625 C-16.31221649 9.0962413 -17.24162048 9.09482635 -18.19918823 9.09336853 C-21.17449124 9.08776053 -24.14971964 9.07520668 -27.125 9.0625 C-29.13932183 9.05748603 -31.15364484 9.05292295 -33.16796875 9.04882812 C-38.11200802 9.0377885 -43.05599135 9.02051849 -48 9 C-48 8.67 -48 8.34 -48 8 C-40.08 8 -32.16 8 -24 8 C-24 7.34 -24 6.68 -24 6 C-17.4 6 -10.8 6 -4 6 C-3.67 4.68 -3.34 3.36 -3 2 C-2.01 2 -1.02 2 0 2 C0 1.34 0 0.68 0 0 Z " fill="#FCBC64" transform="translate(587,217)"/>
<path d="M0 0 C4.62 0.66 9.24 1.32 14 2 C14 2.33 14 2.66 14 3 C-16.69 3 -47.38 3 -79 3 C-79 2.67 -79 2.34 -79 2 C-39.895 1.505 -39.895 1.505 0 1 C0 0.67 0 0.34 0 0 Z " fill="#FFC253" transform="translate(327,159)"/>
<path d="M0 0 C13.53 0 27.06 0 41 0 C41 0.33 41 0.66 41 1 C27.8 1 14.6 1 1 1 C0.67 2.32 0.34 3.64 0 5 C-1.4073176 7.13901061 -2.82731799 9.15739179 -4.375 11.1875 C-4.77460937 11.73341797 -5.17421875 12.27933594 -5.5859375 12.84179688 C-7.65264079 15.58493758 -8.66853352 16.88951117 -12 18 C-10.63784946 14.37628852 -9.02523511 11.08615026 -7.0625 7.75 C-6.30646484 6.44289063 -6.30646484 6.44289063 -5.53515625 5.109375 C-4 3 -4 3 -1 2 C-0.67 1.34 -0.34 0.68 0 0 Z " fill="#FEBB4D" transform="translate(120,103)"/>
<path d="M0 0 C1.23165894 0.00990463 2.46331787 0.01980927 3.7322998 0.03001404 C7.64568815 0.06903302 11.55621705 0.1568445 15.46875 0.24609375 C18.13016729 0.28518939 20.79155772 0.31315852 23.453125 0.34179688 C29.95930019 0.41875492 36.46382078 0.53572397 42.96875 0.68359375 C42.96875 1.67359375 42.96875 2.66359375 42.96875 3.68359375 C40.46875 5.87109375 40.46875 5.87109375 37.96875 7.68359375 C38.62875 5.70359375 39.28875 3.72359375 39.96875 1.68359375 C22.80875 2.01359375 5.64875 2.34359375 -12.03125 2.68359375 C-12.36125 3.34359375 -12.69125 4.00359375 -13.03125 4.68359375 C-14.68973177 5.69711039 -16.35790961 6.6948017 -18.03125 7.68359375 C-19.71602344 8.99397309 -21.38773543 10.32182453 -23.03125 11.68359375 C-18.30869894 1.15407484 -10.73715637 -0.32773669 0 0 Z " fill="#E1BC75" transform="translate(676.03125,100.31640625)"/>
<path d="M0 0 C14.018851 -0.19058861 27.99623563 0.39727388 42 1 C42 1.66 42 2.32 42 3 C28.14 3 14.28 3 0 3 C0 2.01 0 1.02 0 0 Z " fill="#FBB949" transform="translate(45,222)"/>
<path d="M0 0 C0.33 0.66 0.66 1.32 1 2 C-0.12402344 4.18310547 -0.12402344 4.18310547 -1.859375 6.8671875 C-2.48070313 7.83527344 -3.10203125 8.80335938 -3.7421875 9.80078125 C-4.40476562 10.81527344 -5.06734375 11.82976562 -5.75 12.875 C-6.39710937 13.88175781 -7.04421875 14.88851562 -7.7109375 15.92578125 C-9.4563104 18.63003186 -11.20430564 21.32889129 -13 24 C-13.50305664 24.76586426 -14.00611328 25.53172852 -14.52441406 26.32080078 C-15.01135742 26.87493652 -15.49830078 27.42907227 -16 28 C-16.99 28 -17.98 28 -19 28 C-17.87548273 25.0280615 -16.77706209 22.66559313 -15 20 C-14.34 20 -13.68 20 -13 20 C-12.79375 19.195625 -12.5875 18.39125 -12.375 17.5625 C-9.71535295 10.67159627 -5.43524317 4.95566289 0 0 Z " fill="#F4C261" transform="translate(118,176)"/>
<path d="M0 0 C0.33 0 0.66 0 1 0 C1 15.18 1 30.36 1 46 C5.62 46 10.24 46 15 46 C15 46.66 15 47.32 15 48 C13.27185839 48.19672365 11.54240803 48.38196799 9.8125 48.5625 C8.36810547 48.71912109 8.36810547 48.71912109 6.89453125 48.87890625 C4 49 4 49 -1 48 C-0.67 32.16 -0.34 16.32 0 0 Z " fill="#F8B643" transform="translate(402,177)"/>
<path d="M0 0 C2.96175123 0.61277612 4.38058783 1.25372522 7 3 C7.33 3.99 7.66 4.98 8 6 C8.66 6 9.32 6 10 6 C10 6.66 10 7.32 10 8 C10.763125 8.226875 11.52625 8.45375 12.3125 8.6875 C15.59254454 10.28938222 16.15826324 11.93043873 18 15 C20.57099402 16.34689915 20.57099402 16.34689915 23 17 C23 18.32 23 19.64 23 21 C24.32 21.33 25.64 21.66 27 22 C24.80078125 22.28515625 24.80078125 22.28515625 22 22 C19.60546875 20.05859375 19.60546875 20.05859375 17.1875 17.4375 C14.1056167 14.18567679 11.04789188 11.07936379 7.625 8.1875 C4.70407823 5.69229962 2.27043148 3.12184329 0 0 Z " fill="#F2C25F" transform="translate(639,204)"/>
<path d="M0 0 C1.3125 2.625 1.3125 2.625 2 5 C1.01 5 0.02 5 -1 5 C-1.66 4.34 -2.32 3.68 -3 3 C-5.36718207 2.74533983 -7.74603902 2.59459089 -10.125 2.5 C-15.65413466 2.23136471 -20.6980305 1.62305189 -26 0 C-26 -0.33 -26 -0.66 -26 -1 C-22.60514113 -1.2268919 -19.20922665 -1.42821794 -15.8125 -1.625 C-14.37293945 -1.72167969 -14.37293945 -1.72167969 -12.90429688 -1.8203125 C-11.97294922 -1.871875 -11.04160156 -1.9234375 -10.08203125 -1.9765625 C-9.22843018 -2.02893066 -8.3748291 -2.08129883 -7.49536133 -2.13525391 C-4.59082228 -1.97782169 -2.58175771 -1.32887454 0 0 Z " fill="#FCC052" transform="translate(170,192)"/>
<path d="M0 0 C5.5863683 1.06407015 7.65792827 3.61415125 10.80078125 8.02734375 C12 10 12 10 13 13 C13.66 13.33 14.32 13.66 15 14 C16.36244796 15.64295195 17.69864875 17.30824337 19 19 C18.67 19.66 18.34 20.32 18 21 C19.32 21.33 20.64 21.66 22 22 C22 22.66 22 23.32 22 24 C18.50027471 23.43788999 17.12530744 22.40362291 14.94140625 19.6484375 C14.39033203 18.96136719 13.83925781 18.27429688 13.27148438 17.56640625 C12.42553711 16.48166016 12.42553711 16.48166016 11.5625 15.375 C11.00240234 14.67503906 10.44230469 13.97507813 9.86523438 13.25390625 C6.43061331 8.93357777 3.17116529 4.51668775 0 0 Z " fill="#F4BE5C" transform="translate(171,199)"/>
<path d="M0 0 C0.66 0.33 1.32 0.66 2 1 C-1.31000676 6.2014392 -4.21300289 10.51985838 -10 13 C-9.67 13.99 -9.34 14.98 -9 16 C-8.34 16.33 -7.68 16.66 -7 17 C-7 17.66 -7 18.32 -7 19 C-6.34 19.33 -5.68 19.66 -5 20 C-9 20 -9 20 -11.75 17.5 C-12.4925 16.675 -13.235 15.85 -14 15 C-12.40153531 10.75091664 -9.1869608 8.17774261 -5.875 5.25 C-5.31167969 4.74339844 -4.74835937 4.23679688 -4.16796875 3.71484375 C-2.78348469 2.47115468 -1.39238512 1.23483695 0 0 Z " fill="#F0BD5A" transform="translate(645,183)"/>
<path d="M0 0 C1.25541557 3.76624671 0.37061958 5.37188934 -1 9 C-1.66 9 -2.32 9 -3 9 C-3.28875 9.763125 -3.5775 10.52625 -3.875 11.3125 C-5 14 -5 14 -7 17 C-7.28875 17.61875 -7.5775 18.2375 -7.875 18.875 C-9.93626345 22.76849762 -11.75481404 25.58493801 -16 27 C-14.71519319 23.56147518 -13.22472403 20.55241574 -11.25 17.4609375 C-10.7240625 16.63335937 -10.198125 15.80578125 -9.65625 14.953125 C-9.1096875 14.10234375 -8.563125 13.2515625 -8 12.375 C-7.4534375 11.51648438 -6.906875 10.65796875 -6.34375 9.7734375 C-4.25510208 6.49712704 -2.15530994 3.23296491 0 0 Z " fill="#ECBE67" transform="translate(75,171)"/>
<path d="M0 0 C4.49480076 2.42416221 7.94465129 5.52131423 11.625 9 C12.19734375 9.53367187 12.7696875 10.06734375 13.359375 10.6171875 C15.9489946 13.03818071 18.50193394 15.48430927 21 18 C19.68 18.33 18.36 18.66 17 19 C17 18.34 17 17.68 17 17 C16.46375 16.7525 15.9275 16.505 15.375 16.25 C7.34042553 12.0212766 7.34042553 12.0212766 6 8 C4.989375 7.175 3.97875 6.35 2.9375 5.5 C1.968125 4.675 0.99875 3.85 0 3 C0 2.01 0 1.02 0 0 Z " fill="#F1BF58" transform="translate(587,105)"/>
<path d="M0 0 C0.66 0.66 1.32 1.32 2 2 C-13.14893617 16.14893617 -13.14893617 16.14893617 -20 22 C-20.33 20.68 -20.66 19.36 -21 18 C-20.34 18 -19.68 18 -19 18 C-19 17.34 -19 16.68 -19 16 C-17.57421875 14.4921875 -17.57421875 14.4921875 -15.6875 12.875 C-14.76517578 12.06675781 -14.76517578 12.06675781 -13.82421875 11.2421875 C-12 10 -12 10 -9 10 C-8.74476563 9.40703125 -8.48953125 8.8140625 -8.2265625 8.203125 C-6.88183502 5.78775462 -5.50785633 4.48788294 -3.375 2.75 C-2.74335937 2.22921875 -2.11171875 1.7084375 -1.4609375 1.171875 C-0.73777344 0.59179688 -0.73777344 0.59179688 0 0 Z " fill="#EFC364" transform="translate(709,109)"/>
<path d="M0 0 C3.73028794 3.60281407 7.05823446 7.35223124 10.25 11.4375 C10.69601563 11.98470703 11.14203125 12.53191406 11.6015625 13.09570312 C14.40545832 16.68553944 15.64370704 19.45726474 16 24 C15.14921875 22.93072266 15.14921875 22.93072266 14.28125 21.83984375 C12.04681513 19.05827843 9.7760128 16.31008395 7.5 13.5625 C4.43093786 9.82097449 1.55376569 6.10823176 -1 2 C-0.67 1.34 -0.34 0.68 0 0 Z " fill="#F2C262" transform="translate(233,180)"/>
<path d="M0 0 C0.99 0.33 1.98 0.66 3 1 C-1.33834765 9.42552781 -6.68815037 17.17146822 -12 25 C-12.59765625 23.1640625 -12.59765625 23.1640625 -13 21 C-11.4375 18.375 -11.4375 18.375 -10.31640625 16.84765625 C-8.69847908 14.57679705 -7.2960323 12.21114665 -5.875 9.8125 C-4.30170005 7.15908481 -2.71195303 4.56792954 -1 2 C-0.67 1.34 -0.34 0.68 0 0 Z " fill="#F2C463" transform="translate(132,151)"/>
<path d="M0 0 C4.41080354 -0.02490464 8.82156871 -0.04295604 13.23242188 -0.05493164 C14.72982497 -0.05992943 16.22722327 -0.0667299 17.72460938 -0.07543945 C19.88933505 -0.08770623 22.05399565 -0.09327397 24.21875 -0.09765625 C26.1668457 -0.10551147 26.1668457 -0.10551147 28.15429688 -0.11352539 C32.21447996 0.00633146 35.99784188 0.30738184 40 1 C40.495 1.99 40.495 1.99 41 3 C34.4 3 27.8 3 21 3 C21 2.67 21 2.34 21 2 C14.07 1.67 7.14 1.34 0 1 C0 0.67 0 0.34 0 0 Z " fill="#F6CA39" transform="translate(312,133)"/>
<path d="M0 0 C0.93423645 3.01031744 1.04449911 3.86650268 0 7 C13.86 7 27.72 7 42 7 C42 7.33 42 7.66 42 8 C27.15 8 12.3 8 -3 8 C-2 3 -2 3 0 0 Z " fill="#DFB162" transform="translate(45,218)"/>
<path d="M0 0 C0 0.66 0 1.32 0 2 C-0.78375 2.61875 -1.5675 3.2375 -2.375 3.875 C-5.0338123 5.72186598 -5.0338123 5.72186598 -5.953125 7.94921875 C-7.13527955 10.26500659 -8.34510126 11.33751431 -10.375 12.9375 C-13.35342995 15.37101969 -15.60530595 17.98445935 -18 21 C-18.66 21 -19.32 21 -20 21 C-20 18 -20 18 -17.8125 15.625 C-16.884375 14.75875 -15.95625 13.8925 -15 13 C-13.8553125 11.8553125 -13.8553125 11.8553125 -12.6875 10.6875 C-11.800625 9.800625 -10.91375 8.91375 -10 8 C-9.33226562 7.3090625 -8.66453125 6.618125 -7.9765625 5.90625 C-6.90535156 4.80796875 -6.90535156 4.80796875 -5.8125 3.6875 C-5.13832031 2.99011719 -4.46414063 2.29273438 -3.76953125 1.57421875 C-2 0 -2 0 0 0 Z " fill="#F9C251" transform="translate(583,171)"/>
<path d="M0 0 C2.3125 0.0625 2.3125 0.0625 5 1 C6.6875 4.5 6.6875 4.5 8 8 C8.66 8.33 9.32 8.66 10 9 C13 13.5 13 13.5 13 16 C14.32 16 15.64 16 17 16 C17.33 17.65 17.66 19.3 18 21 C14.45142877 20.39372323 14.03951179 20.04780674 11.5625 17.05078125 C10.69712478 15.81244524 9.8433106 14.56596622 9 13.3125 C8.57460938 12.69955078 8.14921875 12.08660156 7.7109375 11.45507812 C5.09310473 7.6688568 2.54511316 3.83534413 0 0 Z " fill="#E9C27D" transform="translate(249,204)"/>
<path d="M0 0 C0.66 0.33 1.32 0.66 2 1 C1.83805935 7.31568548 -1.76643648 11.61742907 -6 16 C-8.23046875 17.265625 -8.23046875 17.265625 -10 18 C-10 16.68 -10 15.36 -10 14 C-7.5625 11.875 -7.5625 11.875 -5 10 C-4.67 9.34 -4.34 8.68 -4 8 C-3.34 8 -2.68 8 -2 8 C-1.855625 6.865625 -1.71125 5.73125 -1.5625 4.5625 C-1 1 -1 1 0 0 Z " fill="#F3C363" transform="translate(381,172)"/>
<path d="M0 0 C1.32 0.33 2.64 0.66 4 1 C3.67 1.66 3.34 2.32 3 3 C2.34 3 1.68 3 1 3 C0.7834375 4.175625 0.7834375 4.175625 0.5625 5.375 C0 8 0 8 -1 10 C-1.66 10 -2.32 10 -3 10 C-3 10.66 -3 11.32 -3 12 C-4.375 13.625 -4.375 13.625 -6 15 C-6.66 15 -7.32 15 -8 15 C-6.62712658 11.30123909 -4.93644547 8.0485524 -2.875 4.6875 C-2.33617187 3.80449219 -1.79734375 2.92148438 -1.2421875 2.01171875 C-0.83226562 1.34785156 -0.42234375 0.68398437 0 0 Z " fill="#F6BD5C" transform="translate(145,161)"/>
<path d="M0 0 C0.8125 1.625 0.8125 1.625 1 4 C-0.61594832 6.04119788 -2.2856382 8.04072937 -4 10 C-4.71447643 12.10332891 -4.71447643 12.10332891 -5 14 C-5.99 15.485 -5.99 15.485 -7 17 C-5.02 17 -3.04 17 -1 17 C-1 17.33 -1 17.66 -1 18 C-3.64 18 -6.28 18 -9 18 C-9.33 17.34 -9.66 16.68 -10 16 C-8.61339541 13.40085394 -7.18124108 10.93165423 -5.625 8.4375 C-5.19960937 7.73947266 -4.77421875 7.04144531 -4.3359375 6.32226562 C-1.1896734 1.1896734 -1.1896734 1.1896734 0 0 Z " fill="#ECC16D" transform="translate(136,176)"/>
<path d="M0 0 C0.66 0 1.32 0 2 0 C2 3.63 2 7.26 2 11 C2.66 11 3.32 11 4 11 C4 11.66 4 12.32 4 13 C8.29 13 12.58 13 17 13 C17 13.33 17 13.66 17 14 C14.72942623 14.05398987 12.45848712 14.09278742 10.1875 14.125 C8.29064453 14.15980469 8.29064453 14.15980469 6.35546875 14.1953125 C3 14 3 14 0 12 C-0.29296875 9.1796875 -0.29296875 9.1796875 -0.1875 5.875 C-0.16042969 4.77929688 -0.13335937 3.68359375 -0.10546875 2.5546875 C-0.07066406 1.71164063 -0.03585937 0.86859375 0 0 Z " fill="#F5BC52" transform="translate(432,179)"/>
<path d="M0 0 C5.50719921 3.90510489 10.35827355 8.09717644 15 13 C14.67 13.66 14.34 14.32 14 15 C12.70094902 14.2628641 11.41098878 13.50969444 10.125 12.75 C9.40570313 12.33234375 8.68640625 11.9146875 7.9453125 11.484375 C5.79125838 9.84071924 5.00859415 8.48432665 4 6 C3.01 6 2.02 6 1 6 C0.67 4.02 0.34 2.04 0 0 Z " fill="#ECBB5E" transform="translate(499,149)"/>
<path d="M0 0 C0 0.33 0 0.66 0 1 C-2.75026417 1.05404449 -5.49946203 1.09369306 -8.25 1.125 C-9.02730469 1.14175781 -9.80460938 1.15851563 -10.60546875 1.17578125 C-17.72431144 1.23662606 -17.72431144 1.23662606 -21 -1 C-13.55473758 -2.8613156 -7.23322137 -2.06663468 0 0 Z " fill="#F1B148" transform="translate(152,193)"/>
<path d="M0 0 C5.03163018 4.29785078 10.02718443 8.63425542 15 13 C9.68916075 13 5.89510608 9.36874039 2 6 C0 3 0 3 0 0 Z " fill="#EFC163" transform="translate(515,163)"/>
<path d="M0 0 C5.17379682 2.24783891 8.77697025 4.16545537 12 9 C7.9666466 9 6.16482462 7.39120082 3 5 C3 4.34 3 3.68 3 3 C-2.61 3 -8.22 3 -14 3 C-14 2.67 -14 2.34 -14 2 C-13.07316406 1.93941406 -12.14632812 1.87882813 -11.19140625 1.81640625 C-9.39509766 1.69072266 -9.39509766 1.69072266 -7.5625 1.5625 C-5.77005859 1.44068359 -5.77005859 1.44068359 -3.94140625 1.31640625 C-1.11429756 1.32343886 -1.11429756 1.32343886 0 0 Z " fill="#F8BE54" transform="translate(557,131)"/>
<path d="M0 0 C0.625 1.8125 0.625 1.8125 1 4 C0.01 5.485 0.01 5.485 -1 7 C-1.66 7 -2.32 7 -3 7 C-3.20625 7.66 -3.4125 8.32 -3.625 9 C-5.51152871 13.11606263 -8.20567979 16.4587703 -11 20 C-11 16.72407709 -10.55189649 15.91985142 -8.84765625 13.2421875 C-8.40099609 12.53449219 -7.95433594 11.82679688 -7.49414062 11.09765625 C-7.02169922 10.36417969 -6.54925781 9.63070312 -6.0625 8.875 C-5.59392578 8.13378906 -5.12535156 7.39257812 -4.64257812 6.62890625 C-1.18268327 1.18268327 -1.18268327 1.18268327 0 0 Z " fill="#E6B767" transform="translate(58,198)"/>
<path d="M0 0 C4.11426845 0.36138844 6.33215215 2.83661582 9.25 5.5625 C10.14203125 6.38878906 11.0340625 7.21507812 11.953125 8.06640625 C12.62859375 8.70449219 13.3040625 9.34257812 14 10 C9.35177549 10 6.1385725 8.04369145 2.75 4.9375 C2.1725 4.298125 1.595 3.65875 1 3 C0.34 2.34 -0.32 1.68 -1 1 C-0.67 0.67 -0.34 0.34 0 0 Z " fill="#E9BB65" transform="translate(660,170)"/>
<path d="M0 0 C0.66 0.33 1.32 0.66 2 1 C-0.52704327 6.21202675 -4.61773359 9.3880132 -9 13 C-9.33 11.68 -9.66 10.36 -10 9 C-9.34 9 -8.68 9 -8 9 C-8 8.34 -8 7.68 -8 7 C-3.52941176 3 -3.52941176 3 -1 3 C-0.67 2.01 -0.34 1.02 0 0 Z " fill="#F3C35B" transform="translate(601,204)"/>
<path d="M0 0 C0.33 0 0.66 0 1 0 C1 3.63 1 7.26 1 11 C-2.3 11 -5.6 11 -9 11 C-9.33 10.34 -9.66 9.68 -10 9 C-7.03 9 -4.06 9 -1 9 C-0.67 6.03 -0.34 3.06 0 0 Z " fill="#ECAF5F" transform="translate(340,150)"/>
<path d="M0 0 C5.28 0 10.56 0 16 0 C16 0.66 16 1.32 16 2 C12.77045351 2.83343135 9.63420868 3.14284811 6.3125 3.25 C5.16201172 3.28867188 5.16201172 3.28867188 3.98828125 3.328125 C3.00408203 3.16570312 3.00408203 3.16570312 2 3 C1.34 2.01 0.68 1.02 0 0 Z " fill="#FBC655" transform="translate(191,223)"/>
<path d="M0 0 C4.95 0 9.9 0 15 0 C15 0.66 15 1.32 15 2 C13.27185839 2.19672365 11.54240803 2.38196799 9.8125 2.5625 C8.84957031 2.66691406 7.88664062 2.77132812 6.89453125 2.87890625 C4.05766623 2.99758751 1.74576329 2.67765639 -1 2 C-0.67 1.34 -0.34 0.68 0 0 Z " fill="#FBBD4F" transform="translate(402,223)"/>
<path d="M0 0 C3.96579951 0.90131807 5.69065802 1.62377327 8.3125 4.8125 C9.8291857 7.67735077 10.6245915 9.80902774 11 13 C6.78185183 9.0299782 3.38772897 4.69159716 0 0 Z " fill="#F0C16B" transform="translate(171,199)"/>
<path d="M0 0 C0.66 0 1.32 0 2 0 C1.35256333 3.82990706 -0.45311237 6.5283898 -2.5625 9.75 C-3.20316406 10.73484375 -3.84382812 11.7196875 -4.50390625 12.734375 C-4.99761719 13.48203125 -5.49132812 14.2296875 -6 15 C-7 12 -7 12 -5.63671875 9.08203125 C-4.99347656 8.00308594 -4.35023438 6.92414063 -3.6875 5.8125 C-3.05199219 4.72582031 -2.41648438 3.63914063 -1.76171875 2.51953125 C-1.18035156 1.68808594 -0.59898437 0.85664063 0 0 Z " fill="#EEC269" transform="translate(142,136)"/>
<path d="M0 0 C0.66 0 1.32 0 2 0 C2.03758423 0.98395752 2.03758423 0.98395752 2.07592773 1.98779297 C2.1917326 4.95040183 2.31452886 7.91268031 2.4375 10.875 C2.47681641 11.90753906 2.51613281 12.94007813 2.55664062 14.00390625 C2.59853516 14.99003906 2.64042969 15.97617188 2.68359375 16.9921875 C2.72025146 17.90339355 2.75690918 18.81459961 2.79467773 19.75341797 C2.86577065 22.03483481 2.86577065 22.03483481 4 24 C3.01 23.67 2.02 23.34 1 23 C0.83210783 19.72922836 0.66589762 16.45837336 0.5 13.1875 C0.45230469 12.25873047 0.40460938 11.32996094 0.35546875 10.37304688 C0.31035156 9.48037109 0.26523437 8.58769531 0.21875 7.66796875 C0.17685547 6.84578857 0.13496094 6.0236084 0.09179688 5.17651367 C0.01907502 3.45227071 0 1.72577585 0 0 Z " fill="#F6BB45" transform="translate(380,149)"/>
<path d="M0 0 C4.94611582 1.16379196 8.30549019 2.30549019 12 6 C12.8125 8.25 12.8125 8.25 13 10 C9.74035658 8.51222697 7.06830707 6.64333184 4.25 4.4375 C3.45078125 3.81746094 2.6515625 3.19742188 1.828125 2.55859375 C1.22484375 2.04425781 0.6215625 1.52992188 0 1 C0 0.67 0 0.34 0 0 Z " fill="#EBC36E" transform="translate(577,150)"/>
<path d="M0 0 C0.90457722 2.47510086 1.16843185 3.59237953 0.14453125 6.0703125 C-0.29503906 6.74835938 -0.73460938 7.42640625 -1.1875 8.125 C-1.61417969 8.80820313 -2.04085937 9.49140625 -2.48046875 10.1953125 C-4.15678371 12.18620585 -5.61635587 13.00979238 -8 14 C-6.6744419 10.37723685 -5.05653045 7.36494652 -2.875 4.1875 C-2.33617188 3.39730469 -1.79734375 2.60710937 -1.2421875 1.79296875 C-0.83226563 1.20128906 -0.42234375 0.60960938 0 0 Z " fill="#EFBD60" transform="translate(107,121)"/>
<path d="M0 0 C1 2 1 2 1.4375 4.0625 C1.7159375 5.0215625 1.7159375 5.0215625 2 6 C2.66 6.33 3.32 6.66 4 7 C4 7.66 4 8.32 4 9 C4.66 9.33 5.32 9.66 6 10 C2 10 2 10 -0.75 7.5 C-1.4925 6.675 -2.235 5.85 -3 5 C-1.125 1.125 -1.125 1.125 0 0 Z " fill="#EEC574" transform="translate(634,193)"/>
<path d="M0 0 C-1.53009089 3.44270451 -3.4931222 6.18925822 -6 9 C-6.99 9.33 -7.98 9.66 -9 10 C-7.6834994 5.81113445 -4.97532335 0 0 0 Z " fill="#EEBD58" transform="translate(68,188)"/>
<path d="M0 0 C1.32 0.33 2.64 0.66 4 1 C4 1.99 4 2.98 4 4 C-0.95 4 -5.9 4 -11 4 C-9 2 -9 2 -6.8359375 1.8046875 C-5.61777344 1.83949219 -5.61777344 1.83949219 -4.375 1.875 C-3.14910156 1.90207031 -3.14910156 1.90207031 -1.8984375 1.9296875 C-0.95871094 1.96449219 -0.95871094 1.96449219 0 2 C0 1.34 0 0.68 0 0 Z " fill="#E0BB69" transform="translate(719,222)"/>
<path d="M0 0 C0.556875 0.28875 1.11375 0.5775 1.6875 0.875 C4.08494645 2.0413253 6.51596939 3.0339881 9 4 C9 5.32 9 6.64 9 8 C10.32 8.33 11.64 8.66 13 9 C9.74031863 9.35964961 8.41291956 9.31635547 5.76171875 7.28515625 C5.07722656 6.55167969 4.39273438 5.81820312 3.6875 5.0625 C2.64142578 3.96615234 2.64142578 3.96615234 1.57421875 2.84765625 C0 1 0 1 0 0 Z " fill="#E5BA65" transform="translate(653,217)"/>
<path d="M0 0 C1.17219543 0.78345715 2.33763668 1.57702836 3.5 2.375 C4.47453125 3.03628906 4.47453125 3.03628906 5.46875 3.7109375 C5.9740625 4.13632813 6.479375 4.56171875 7 5 C7 5.66 7 6.32 7 7 C5.35 7.33 3.7 7.66 2 8 C1.01 6.68 0.02 5.36 -1 4 C-0.34 4 0.32 4 1 4 C0.67 2.68 0.34 1.36 0 0 Z " fill="#EDB353" transform="translate(713,215)"/>
<path d="M0 0 C2.25 0 2.25 0 5 1 C6.76178014 3.48947194 8.08336933 6.0894 9 9 C8.67 9.66 8.34 10.32 8 11 C6.66375099 9.35653302 5.33107149 7.71016314 4 6.0625 C3.2575 5.14597656 2.515 4.22945312 1.75 3.28515625 C0 1 0 1 0 0 Z " fill="#EFC167" transform="translate(249,204)"/>
<path d="M0 0 C4.62 0.66 9.24 1.32 14 2 C14 2.33 14 2.66 14 3 C7.07 3 0.14 3 -7 3 C-7 2.67 -7 2.34 -7 2 C-3.535 1.505 -3.535 1.505 0 1 C0 0.67 0 0.34 0 0 Z " fill="#FBC94A" transform="translate(327,159)"/>
<path d="M0 0 C2 1 2 1 4 4 C0.73454239 5.88391785 -2.28111761 6.49287967 -6 7 C-4.02 4.69 -2.04 2.38 0 0 Z " fill="#FBB84A" transform="translate(660,105)"/>
<path d="M0 0 C1.9453125 -0.29296875 1.9453125 -0.29296875 4.125 -0.1875 C5.40375 -0.125625 6.6825 -0.06375 8 0 C7.67 0.99 7.34 1.98 7 3 C4.03 3 1.06 3 -2 3 C-1.34 2.01 -0.68 1.02 0 0 Z " fill="#FEBB5F" transform="translate(670,223)"/>
<path d="M0 0 C0.66 0 1.32 0 2 0 C2.33 1.65 2.66 3.3 3 5 C3.99 5.33 4.98 5.66 6 6 C6.33 7.98 6.66 9.96 7 12 C2.5991297 8.17819158 1.19194469 5.52628901 0 0 Z " fill="#F5BE53" transform="translate(226,170)"/>
<path d="M0 0 C0.66 0.33 1.32 0.66 2 1 C2 1.66 2 2.32 2 3 C2.66 3 3.32 3 4 3 C4.33 2.34 4.66 1.68 5 1 C5.33 2.32 5.66 3.64 6 5 C4.68 4.67 3.36 4.34 2 4 C1.67 5.98 1.34 7.96 1 10 C0.01 10.33 -0.98 10.66 -2 11 C-1.53078003 8.58686871 -1.0498364 6.19380821 -0.4375 3.8125 C0.07821351 1.98673164 0.07821351 1.98673164 0 0 Z " fill="#F6B741" transform="translate(130,147)"/>
<path d="M0 0 C0.33 0.99 0.66 1.98 1 3 C-2.33333333 5.66666667 -5.66666667 8.33333333 -9 11 C-9.66 10.67 -10.32 10.34 -11 10 C-5.555 5.05 -5.555 5.05 0 0 Z " fill="#E5B865" transform="translate(651,111)"/>
<path d="M0 0 C0.99 0.33 1.98 0.66 3 1 C1.90220176 2.15193623 0.79650554 3.29634937 -0.3125 4.4375 C-0.92738281 5.07558594 -1.54226563 5.71367187 -2.17578125 6.37109375 C-4 8 -4 8 -7 9 C-6.67 8.01 -6.34 7.02 -6 6 C-5.34 6 -4.68 6 -4 6 C-3.67 4.68 -3.34 3.36 -3 2 C-2.01 2 -1.02 2 0 2 C0 1.34 0 0.68 0 0 Z " fill="#ECC06B" transform="translate(587,217)"/>
<path d="M0 0 C-0.125 1.75 -0.125 1.75 -1 4 C-4.0625 6.25 -4.0625 6.25 -7 8 C-7 6.68 -7 5.36 -7 4 C-2.77777778 0 -2.77777778 0 0 0 Z " fill="#F2BA5A" transform="translate(378,182)"/>
<path d="M0 0 C6 6 6 6 6.0625 8.5625 C6.041875 9.366875 6.02125 10.17125 6 11 C3.61327331 8.03716687 1.2646629 5.05729491 -1 2 C-0.67 1.34 -0.34 0.68 0 0 Z " fill="#F8C874" transform="translate(233,180)"/>
<path d="M0 0 C0 0.66 0 1.32 0 2 C-0.78375 2.61875 -1.5675 3.2375 -2.375 3.875 C-4.86229156 5.88852174 -5.85538266 7.08642859 -7 10 C-7.99 10 -8.98 10 -10 10 C-8.50006099 6.10015857 -4.53875449 0 0 0 Z " fill="#E1B55A" transform="translate(583,171)"/>
<path d="M0 0 C0.721875 0.495 1.44375 0.99 2.1875 1.5 C5.14848659 3.07919285 6.71253029 3.28178312 10 3 C10.33 2.01 10.66 1.02 11 0 C11.33 0.66 11.66 1.32 12 2 C9.94766315 4.2477975 8.99332739 5.0022242 6 6 C3.375 4.75 3.375 4.75 1 3 C0.67 2.01 0.34 1.02 0 0 Z " fill="#FABF4A" transform="translate(617,133)"/>
<path d="M0 0 C1.32 0.33 2.64 0.66 4 1 C1.61042731 4.24299151 -0.2047869 6.50902342 -4 8 C-2.87548273 5.0280615 -1.77706209 2.66559313 0 0 Z " fill="#FAB748" transform="translate(55,205)"/>
<path d="M0 0 C0.66 0.33 1.32 0.66 2 1 C1.2884375 1.6496875 1.2884375 1.6496875 0.5625 2.3125 C-1.23686957 4.02309613 -1.23686957 4.02309613 -2 7 C-5.0625 8.1875 -5.0625 8.1875 -8 9 C-8 8.34 -8 7.68 -8 7 C-6.25 5.2734375 -6.25 5.2734375 -4 3.375 C-3.2575 2.74335938 -2.515 2.11171875 -1.75 1.4609375 C-1.1725 0.97882813 -0.595 0.49671875 0 0 Z " fill="#E9BE69" transform="translate(656,173)"/>
<path d="M0 0 C0.66 1.32 1.32 2.64 2 4 C-1.625 8.875 -1.625 8.875 -5 10 C-3.66511872 6.40608886 -2.03977277 3.24509304 0 0 Z " fill="#F2C568" transform="translate(113,111)"/>
<path d="M0 0 C0.66 0 1.32 0 2 0 C2.33 2.64 2.66 5.28 3 8 C2.34 8 1.68 8 1 8 C1 6.68 1 5.36 1 4 C-0.32 4 -1.64 4 -3 4 C-3.33 3.01 -3.66 2.02 -4 1 C-3.34 1 -2.68 1 -2 1 C-2 1.66 -2 2.32 -2 3 C-1.34 3 -0.68 3 0 3 C0 2.01 0 1.02 0 0 Z " fill="#F1C249" transform="translate(265,216)"/>
<path d="M0 0 C1.32 0.33 2.64 0.66 4 1 C0.04 4.465 0.04 4.465 -4 8 C-4.33 7.01 -4.66 6.02 -5 5 C-2.75 2.4375 -2.75 2.4375 0 0 Z " fill="#F0C26B" transform="translate(641,169)"/>
<path d="M0 0 C0.66 0.33 1.32 0.66 2 1 C-0.46153846 6.66153846 -0.46153846 6.66153846 -3.1875 8.375 C-3.785625 8.58125 -4.38375 8.7875 -5 9 C-3.7508258 5.54074837 -2.32472205 2.85306797 0 0 Z " fill="#F1C46D" transform="translate(88,151)"/>
<path d="M0 0 C0.99 0.33 1.98 0.66 3 1 C1.92598892 3.91517292 1.22189824 5.77810176 -1 8 C-1.93065133 5.39417629 -2.14917407 4.35801776 -1.0625 1.75 C-0.711875 1.1725 -0.36125 0.595 0 0 Z " fill="#EFBD4F" transform="translate(116,106)"/>
<path d="M0 0 C2.64 1.98 5.28 3.96 8 6 C6.68 6.33 5.36 6.66 4 7 C1.75 5.25 1.75 5.25 0 3 C0 2.01 0 1.02 0 0 Z " fill="#ECC06A" transform="translate(705,208)"/>
<path d="M0 0 C1.79133978 -0.05391993 3.58313899 -0.09275571 5.375 -0.125 C6.37273438 -0.14820313 7.37046875 -0.17140625 8.3984375 -0.1953125 C11 0 11 0 13 2 C6.565 2.495 6.565 2.495 0 3 C0 2.01 0 1.02 0 0 Z " fill="#F6B543" transform="translate(542,131)"/>
<path d="M0 0 C0.93065133 2.60582371 1.14917407 3.64198224 0.0625 6.25 C-0.4634375 7.11625 -0.4634375 7.11625 -1 8 C-1.66 8 -2.32 8 -3 8 C-2.45276317 4.62537285 -1.9451 2.91765 0 0 Z " fill="#EAC87C" transform="translate(45,218)"/>
<path d="M0 0 C0.66 0 1.32 0 2 0 C0.73058503 3.91402949 -0.51167694 5.79072873 -4 8 C-3.40312566 4.65750371 -2.26396123 2.53563658 0 0 Z " fill="#FABC4F" transform="translate(658,172)"/>
<path d="M0 0 C0.66 0.33 1.32 0.66 2 1 C2 1.66 2 2.32 2 3 C0.03852126 4.38938077 -1.96166576 5.7260411 -4 7 C-3.43628586 3.73045798 -2.50037734 2.17424117 0 0 Z " fill="#FAB944" transform="translate(581,173)"/>
<path d="M0 0 C0.99 0.33 1.98 0.66 3 1 C3 2.32 3 3.64 3 5 C1.35 5.66 -0.3 6.32 -2 7 C-2 3 -2 3 0 1 C0 0.67 0 0.34 0 0 Z " fill="#F8B747" transform="translate(139,173)"/>
<path d="M0 0 C1.65 1.65 3.3 3.3 5 5 C3.35 5.33 1.7 5.66 0 6 C-0.38218767 4.34385343 -0.71395102 2.67542976 -1 1 C-0.67 0.67 -0.34 0.34 0 0 Z " fill="#ECBA5E" transform="translate(608,123)"/>
<path d="M0 0 C2.64 0 5.28 0 8 0 C7.01 1.485 7.01 1.485 6 3 C3.03 2.505 3.03 2.505 0 2 C0 1.34 0 0.68 0 0 Z " fill="#FCBE46" transform="translate(662,223)"/>
<path d="M0 0 C2.91227269 3.28804981 4.49701212 5.59885603 5 10 C1.64085078 7.76056718 1.18318364 6.73157917 0 3 C0 2.01 0 1.02 0 0 Z " fill="#F2C268" transform="translate(223,166)"/>
<path d="M0 0 C1.32 0.33 2.64 0.66 4 1 C3.67 1.66 3.34 2.32 3 3 C2.01 3.33 1.02 3.66 0 4 C-1.66710346 5.49985609 -1.66710346 5.49985609 -3 7 C-1.125 2.25 -1.125 2.25 0 0 Z " fill="#E9BA5E" transform="translate(145,161)"/>
<path d="M0 0 C0.80824219 0.10183594 1.61648438 0.20367187 2.44921875 0.30859375 C3.06410156 0.39238281 3.67898438 0.47617188 4.3125 0.5625 C4.3125 0.8925 4.3125 1.2225 4.3125 1.5625 C2.87715159 1.7851746 1.43904475 1.99011906 0 2.1875 C-0.80050781 2.30351562 -1.60101563 2.41953125 -2.42578125 2.5390625 C-4.6875 2.5625 -4.6875 2.5625 -7.6875 0.5625 C-4.59271121 -0.46909626 -3.16118607 -0.41232862 0 0 Z " fill="#F7B347" transform="translate(390.6875,131.4375)"/>
<path d="M0 0 C4.875 1.75 4.875 1.75 6 4 C4.68 4.33 3.36 4.66 2 5 C2 4.34 2 3.68 2 3 C1.01 2.67 0.02 2.34 -1 2 C-0.67 1.34 -0.34 0.68 0 0 Z " fill="#ECBB55" transform="translate(602,119)"/>
<path d="" fill="#000000" transform="translate(0,0)"/>
<path d="" fill="#000000" transform="translate(0,0)"/>
<path d="" fill="#000000" transform="translate(0,0)"/>
<path d="" fill="#000000" transform="translate(0,0)"/>
<path d="" fill="#000000" transform="translate(0,0)"/>
<path d="" fill="#000000" transform="translate(0,0)"/>
<path d="" fill="#000000" transform="translate(0,0)"/>
<path d="" fill="#000000" transform="translate(0,0)"/>
<path d="" fill="#000000" transform="translate(0,0)"/>
<path d="" fill="#000000" transform="translate(0,0)"/>
<path d="" fill="#000000" transform="translate(0,0)"/>
<path d="" fill="#000000" transform="translate(0,0)"/>
<path d="" fill="#000000" transform="translate(0,0)"/>
<path d="" fill="#000000" transform="translate(0,0)"/>
<path d="" fill="#000000" transform="translate(0,0)"/>
<path d="" fill="#000000" transform="translate(0,0)"/>
<path d="" fill="#000000" transform="translate(0,0)"/>
<path d="" fill="#000000" transform="translate(0,0)"/>
<path d="" fill="#000000" transform="translate(0,0)"/>
<path d="" fill="#000000" transform="translate(0,0)"/>
<path d="" fill="#000000" transform="translate(0,0)"/>
<path d="" fill="#000000" transform="translate(0,0)"/>
<path d="" fill="#000000" transform="translate(0,0)"/>
<path d="" fill="#000000" transform="translate(0,0)"/>
<path d="" fill="#000000" transform="translate(0,0)"/>
<path d="" fill="#000000" transform="translate(0,0)"/>
<path d="" fill="#000000" transform="translate(0,0)"/>
<path d="" fill="#000000" transform="translate(0,0)"/>
<path d="" fill="#000000" transform="translate(0,0)"/>
<path d="" fill="#000000" transform="translate(0,0)"/>
<path d="" fill="#000000" transform="translate(0,0)"/>
<path d="" fill="#000000" transform="translate(0,0)"/>
<path d="" fill="#000000" transform="translate(0,0)"/>
<path d="" fill="#000000" transform="translate(0,0)"/>
<path d="" fill="#000000" transform="translate(0,0)"/>
<path d="" fill="#000000" transform="translate(0,0)"/>
<path d="" fill="#000000" transform="translate(0,0)"/>
<path d="" fill="#000000" transform="translate(0,0)"/>
<path d="" fill="#000000" transform="translate(0,0)"/>
<path d="" fill="#000000" transform="translate(0,0)"/>
<path d="" fill="#000000" transform="translate(0,0)"/>
<path d="" fill="#000000" transform="translate(0,0)"/>
<path d="" fill="#000000" transform="translate(0,0)"/>
<path d="" fill="#000000" transform="translate(0,0)"/>
<path d="" fill="#000000" transform="translate(0,0)"/>
<path d="" fill="#000000" transform="translate(0,0)"/>
<path d="" fill="#000000" transform="translate(0,0)"/>
<path d="" fill="#000000" transform="translate(0,0)"/>
<path d="" fill="#000000" transform="translate(0,0)"/>
<path d="" fill="#000000" transform="translate(0,0)"/>
<path d="" fill="#000000" transform="translate(0,0)"/>
<path d="" fill="#000000" transform="translate(0,0)"/>
<path d="" fill="#000000" transform="translate(0,0)"/>
<path d="" fill="#000000" transform="translate(0,0)"/>
<path d="" fill="#000000" transform="translate(0,0)"/>
<path d="" fill="#000000" transform="translate(0,0)"/>
<path d="" fill="#000000" transform="translate(0,0)"/>
<path d="" fill="#000000" transform="translate(0,0)"/>
<path d="" fill="#000000" transform="translate(0,0)"/>
<path d="" fill="#000000" transform="translate(0,0)"/>
<path d="" fill="#000000" transform="translate(0,0)"/>
<path d="" fill="#000000" transform="translate(0,0)"/>
<path d="" fill="#000000" transform="translate(0,0)"/>
<path d="" fill="#000000" transform="translate(0,0)"/>
<path d="" fill="#000000" transform="translate(0,0)"/>
<path d="" fill="#000000" transform="translate(0,0)"/>
<path d="" fill="#000000" transform="translate(0,0)"/>
<path d="" fill="#000000" transform="translate(0,0)"/>
<path d="" fill="#000000" transform="translate(0,0)"/>
<path d="" fill="#000000" transform="translate(0,0)"/>
<path d="" fill="#000000" transform="translate(0,0)"/>
</svg>
