<svg width="101" height="100" viewBox="0 0 101 100" fill="none" xmlns="http://www.w3.org/2000/svg">
<path d="M50.166 33.5C50.3866 33.5 50.6049 33.5465 50.8066 33.6357C51.0083 33.725 51.1896 33.8554 51.3379 34.0186L51.3428 34.0244L51.3486 34.0303L78.1396 61.6553C78.8242 62.362 78.9788 63.4163 78.7021 64.3174C78.4242 65.2223 77.7683 65.8279 76.958 65.8281H53.3184L35.4639 47.9727L48.9834 34.0303L48.9893 34.0244L48.9941 34.0186C49.1425 33.8553 49.3236 33.725 49.5254 33.6357C49.7272 33.5465 49.9454 33.5 50.166 33.5Z" stroke="#E3E4E5"/>
<path opacity="0.5" d="M46.0127 65.8276H23.374C22.5637 65.8275 21.9079 65.2227 21.6299 64.3179C21.3532 63.4168 21.5069 62.3616 22.1914 61.6548L31.8623 51.6772L46.0127 65.8276Z" stroke="#E3E4E5"/>
</svg>
